<?xml version="1.0" encoding="UTF-8"?>
<svg id="Camada_2" data-name="Camada 2" xmlns="http://www.w3.org/2000/svg" viewBox="0 0 158.88 45.52">
  <defs>
    <style>
      .cls-1 {
        fill: #db0d26;
      }

      .cls-2 {
        fill: #fff;
      }
    </style>
  </defs>
  <g id="Layer_1" data-name="Layer 1">
    <g>
      <g>
        <polygon class="cls-1" points="24.36 0 0 21.56 3.07 24.63 24.36 5.7 45.65 24.63 48.72 21.56 24.36 0"/>
        <path class="cls-1" d="M26.48,19.64h4.63v-4.23h-13.5v4.23h4.63v4.4h-13.26v4.23h13.26v4.4h-11.15v12.85h26.52v-12.85h-11.15v-4.4h13.26v-4.23h-13.26v-4.4ZM33.39,36.89v4.4H15.33v-4.4h18.06Z"/>
      </g>
      <g>
        <path class="cls-2" d="M62,2.31c-2.2,0-3.94.61-5.22,1.84-1.28,1.23-1.93,2.98-1.93,5.26v4.26c0,2.28.64,4.03,1.93,5.26,1.28,1.22,3.02,1.84,5.22,1.84s3.86-.6,5.06-1.79,1.79-2.83,1.79-4.9v-.35h-3.29v.46c0,1.03-.29,1.89-.87,2.57s-1.47,1.03-2.67,1.03-2.11-.37-2.79-1.1c-.68-.73-1.01-1.72-1.01-2.95v-4.36c0-1.25.34-2.24,1.01-2.96.68-.73,1.6-1.09,2.79-1.09s2.09.34,2.67,1.01c.58.68.87,1.54.87,2.58v.25h3.29v-.15c0-2.08-.6-3.71-1.79-4.9s-2.88-1.79-5.06-1.79Z"/>
        <path class="cls-2" d="M79.93,2.66h-4.91l-4.66,17.74h3.45l.96-3.9h6.34l.96,3.9h3.45l-4.66-17.74h-.92ZM75.55,13.41l1.92-7.7h.92l1.92,7.7h-4.76Z"/>
        <path class="cls-2" d="M97.36,20.06c1-.46,1.78-1.11,2.33-1.93.55-.82.82-1.77.82-2.85s-.26-1.97-.79-2.66c-.52-.69-1.25-1.25-2.19-1.67-.94-.42-2.04-.77-3.31-1.04l-.58-.13c-.71-.15-1.29-.33-1.75-.53s-.8-.46-1.03-.76c-.23-.3-.34-.68-.34-1.11,0-.66.24-1.18.72-1.56.48-.38,1.23-.57,2.24-.57.68,0,1.26.1,1.75.29.49.19.87.5,1.13.91.26.41.39.96.39,1.63v.76h3.29v-.76c0-1.28-.28-2.35-.85-3.21-.57-.85-1.34-1.5-2.33-1.93s-2.12-.65-3.38-.65-2.37.21-3.31.62c-.94.41-1.66,1.01-2.18,1.77-.52.77-.77,1.69-.77,2.77s.23,1.96.7,2.64c.46.68,1.13,1.22,2,1.63.87.41,1.91.76,3.13,1.03l.58.13c.76.17,1.41.35,1.94.54.53.19.94.44,1.22.75.28.3.42.7.42,1.19,0,.71-.28,1.29-.85,1.75-.57.46-1.42.68-2.57.68s-2.03-.27-2.69-.8c-.66-.53-.99-1.33-.99-2.39v-.71h-3.29v.71c0,1.28.3,2.38.89,3.29.59.91,1.41,1.61,2.46,2.1,1.05.49,2.26.73,3.62.73s2.56-.23,3.56-.7Z"/>
        <path class="cls-2" d="M106.19,16.5h6.34l.96,3.9h3.45l-4.66-17.74h-5.83l-4.66,17.74h3.45l.96-3.9ZM108.9,5.7h.92l1.92,7.7h-4.76l1.92-7.7Z"/>
        <path class="cls-2" d="M134.47,2.66h-7.3v2.94h2.33v11.86h-2.33v2.94h7.3c2.38,0,4.19-.6,5.44-1.81,1.24-1.21,1.86-3,1.86-5.38v-3.34c0-2.38-.62-4.18-1.86-5.38-1.24-1.21-3.05-1.81-5.44-1.81ZM138.42,13.3c0,1.28-.31,2.28-.94,2.99-.63.71-1.61,1.06-2.96,1.06h-1.67V5.7h1.67c1.35,0,2.34.35,2.96,1.05.62.7.94,1.7.94,3v3.55Z"/>
        <path class="cls-2" d="M156.77,4.14c-1.32-1.22-3.09-1.84-5.32-1.84s-4,.61-5.32,1.84c-1.32,1.23-1.98,2.98-1.98,5.26v4.26c0,2.28.66,4.03,1.98,5.26,1.32,1.22,3.09,1.84,5.32,1.84s4-.61,5.32-1.84c1.32-1.22,1.98-2.98,1.98-5.26v-4.26c0-2.28-.66-4.03-1.98-5.26ZM155.4,13.76c0,1.22-.35,2.19-1.04,2.91-.69.73-1.66,1.09-2.91,1.09s-2.2-.36-2.9-1.09c-.7-.73-1.05-1.7-1.05-2.91v-4.46c0-1.22.35-2.19,1.05-2.91.7-.73,1.67-1.09,2.9-1.09s2.22.36,2.91,1.09c.69.73,1.04,1.7,1.04,2.91v4.46Z"/>
        <path class="cls-2" d="M62.57,25.12h-4.83l-4.66,17.74h3.45l.96-3.9h6.34l.96,3.9h3.45l-4.66-17.74h-1ZM58.27,35.86l1.92-7.7h.92l1.92,7.7h-4.76Z"/>
        <path class="cls-2" d="M80.25,33.41c-.94-.42-2.04-.77-3.31-1.04l-.58-.13c-.71-.15-1.29-.33-1.75-.53s-.8-.46-1.03-.76c-.23-.3-.34-.68-.34-1.11,0-.66.24-1.18.72-1.56.48-.38,1.23-.57,2.24-.57.68,0,1.26.1,1.75.29.49.19.87.5,1.13.91.26.41.39.96.39,1.63v.76h3.29v-.76c0-1.28-.28-2.35-.85-3.21-.57-.85-1.34-1.5-2.33-1.93s-2.12-.65-3.38-.65-2.37.21-3.31.62c-.94.41-1.66,1.01-2.18,1.77-.52.77-.77,1.69-.77,2.77s.23,1.96.7,2.64c.46.68,1.13,1.22,2,1.63.87.41,1.91.76,3.13,1.03l.58.13c.76.17,1.41.35,1.94.54.53.19.94.44,1.22.75.28.3.42.7.42,1.19,0,.71-.28,1.29-.85,1.75-.57.46-1.42.68-2.57.68s-2.03-.27-2.69-.8c-.66-.53-.99-1.33-.99-2.39v-.71h-3.29v.71c0,1.28.3,2.38.89,3.29.59.91,1.41,1.61,2.46,2.1,1.05.49,2.26.73,3.62.73s2.56-.23,3.56-.7c1-.46,1.78-1.11,2.33-1.93.55-.82.82-1.77.82-2.85s-.26-1.97-.79-2.66c-.52-.69-1.25-1.25-2.19-1.67Z"/>
        <rect class="cls-2" x="86.14" y="25.12" width="3.34" height="17.74"/>
        <polygon class="cls-2" points="105.72 28.16 110.89 28.16 110.89 42.86 114.23 42.86 114.23 28.16 119.4 28.16 119.4 25.12 105.72 25.12 105.72 28.16"/>
        <rect class="cls-2" x="121.68" y="25.12" width="3.34" height="17.74"/>
        <path class="cls-2" d="M135.11,24.77c-2.2,0-3.94.61-5.22,1.84-1.28,1.23-1.93,2.98-1.93,5.26v4.26c0,2.28.64,4.03,1.93,5.26,1.28,1.22,3.02,1.84,5.22,1.84s3.86-.6,5.06-1.79c1.19-1.19,1.79-2.83,1.79-4.9v-.35h-3.29v.46c0,1.03-.29,1.89-.87,2.57s-1.47,1.03-2.67,1.03-2.11-.37-2.79-1.1c-.68-.73-1.01-1.72-1.01-2.95v-4.36c0-1.25.34-2.24,1.01-2.96.68-.73,1.6-1.09,2.79-1.09s2.09.34,2.67,1.01c.58.68.87,1.54.87,2.58v.25h3.29v-.15c0-2.08-.6-3.71-1.79-4.9-1.19-1.19-2.88-1.79-5.06-1.79Z"/>
        <path class="cls-2" d="M151.58,24.77c-2.23,0-4,.61-5.32,1.84-1.32,1.23-1.98,2.98-1.98,5.26v4.26c0,2.28.66,4.03,1.98,5.26,1.32,1.22,3.09,1.84,5.32,1.84s4-.61,5.32-1.84c1.32-1.22,1.98-2.98,1.98-5.26v-4.26c0-2.28-.66-4.03-1.98-5.26-1.32-1.22-3.09-1.84-5.32-1.84ZM155.54,36.22c0,1.22-.35,2.19-1.04,2.91-.69.73-1.66,1.09-2.91,1.09s-2.2-.36-2.9-1.09c-.7-.73-1.05-1.7-1.05-2.91v-4.46c0-1.22.35-2.19,1.05-2.91.7-.73,1.67-1.09,2.9-1.09s2.22.36,2.91,1.09c.69.73,1.04,1.7,1.04,2.91v4.46Z"/>
        <path class="cls-2" d="M102,25.12h-5.72l-4.66,17.74h3.45l.96-3.9h6.34l.96,3.9h3.45l-4.66-17.74h-.1ZM96.81,35.86l1.92-7.7h.92l1.92,7.7h-4.76Z"/>
        <polygon class="cls-2" points="95.7 23.91 102.68 23.91 102.68 21.61 95.7 22.52 95.7 23.91"/>
      </g>
    </g>
  </g>
</svg>