<?xml version="1.0" encoding="UTF-8"?>
<svg id="Camada_2" data-name="Camada 2" xmlns="http://www.w3.org/2000/svg" viewBox="0 0 74.55 23.08">
  <defs>
    <style>
      .cls-1 {
        fill: #a2a2a2;
      }
    </style>
  </defs>
  <g id="Camada_1-2" data-name="Camada 1">
    <g>
      <path class="cls-1" d="M23.78,2.19C18.25-1.87,9.93,0,6.78,6.07c-.58,1.13-.83,2.38-1.38,3.51H0v4.07h5.4c.68,1.61,1.12,3.32,2.17,4.75,4.16,5.66,13.03,6.25,18.1,1.46.3-.28.94-.72.72-1.12l-3.07-2.85c-3.7,4.53-11.63,3.85-13.14-2.24h17.72c.78-4.03-.75-8.97-4.13-11.45ZM10.49,9.57l-.23-.42c1.85-6.7,11.97-6.64,13.16.42h-12.93Z"/>
      <path class="cls-1" d="M69.16,9.57c-.73-1.95-1.3-3.67-2.65-5.3-7.89-9.55-23.63-1.8-20.33,10.55,2.34,8.77,14.27,11,20.12,4.32,1.45-1.65,2.11-3.47,2.85-5.5h5.4v-4.07h-5.4ZM52.34,16.4C46.06,9.61,56.19,0,62.46,6.59c6.42,6.75-3.71,16.73-10.12,9.81Z"/>
      <path class="cls-1" d="M44.81,18.33v4.69h-9.06c-.8,0-2.55-.74-3.13-1.35-.52-.54-1.24-2.13-1.24-2.83V.2h4.89v18.13h8.56Z"/>
    </g>
  </g>
</svg>