<?xml version="1.0" encoding="UTF-8"?>
<svg id="Camada_2" data-name="Camada 2" xmlns="http://www.w3.org/2000/svg" viewBox="0 0 189.71 68.07">
  <defs>
    <style>
      .cls-1 {
        fill: #a2a2a2;
      }

      .cls-1, .cls-2 {
        fill-rule: evenodd;
      }

      .cls-2 {
        fill: #cecece;
      }
    </style>
  </defs>
  <g id="Camada_1-2" data-name="Camada 1">
    <g id="rootGroup">
      <g id="Layer1000">
        <path class="cls-1" d="M50.05,53.72l-11.13,11.13c-4.29,4.29-11.26,4.29-15.55,0l-11.09-11.09c2.08,0,3.82-.25,5.31-.76,1.53-.51,2.72-1.27,3.61-2.29l8.97-9.09c.47-.38.93-.59,1.36-.59.47,0,.89.21,1.36.59l8.97,9.09c.85,1.02,2.08,1.78,3.61,2.29,1.32.42,2.85.68,4.63.72h-.04ZM12.23,20.02l11.13-11.13c4.29-4.29,11.26-4.29,15.55,0l11.18,11.18c-1.78.04-3.36.3-4.67.72-1.53.51-2.72,1.27-3.61,2.29l-8.97,9.09c-.47.38-.93.59-1.36.59-.47,0-.89-.21-1.36-.59l-8.97-9.09c-.85-1.02-2.08-1.78-3.61-2.29-1.49-.47-3.27-.72-5.35-.76h.04ZM3.18,29.07l5.18-5.18c3.99-.64,6.59-.38,8.46.25,1.87.68,3.02,1.74,4.04,2.76h0c6.54,6.59,8.58,8.24,8.63,8.24h0c.25.17.59.34.98.42.38.13.81.17,1.15.17s.76-.04,1.1-.17c.38-.13.72-.25.98-.47h0s2.08-1.66,8.63-8.24h0c1.02-.98,2.17-2.08,4.04-2.76,1.7-.59,4.04-.85,7.44-.42l5.35,5.35c4.29,4.29,4.29,11.26,0,15.55l-5.4,5.4c-3.4.42-5.69.17-7.35-.42-1.87-.68-3.02-1.74-4.04-2.76h0c-6.54-6.59-8.58-8.24-8.63-8.24h0c-.25-.17-.59-.34-.98-.47-.38-.13-.76-.17-1.1-.17s-.76.08-1.15.17c-.38.13-.72.25-.98.42h0s-2.08,1.66-8.63,8.24h0c-1.02.98-2.17,2.08-4.04,2.76-1.87.64-4.42.89-8.37.3l-5.27-5.27c-4.29-4.29-4.29-11.26,0-15.55l-.04.09Z"/>
        <path class="cls-2" d="M79.16,64.81c.85-2.08.34-33.62.34-38.8,0-5.99,3.19-10.2,7.73-11.77,2.89-1.02,15.21-1.06,18.36-.17,4.55,1.27,8.33,5.44,8.41,11.18.13,6.71.81,12.15-3.19,16.19-4.42,4.5-8.2,3.7-15.64,3.7-1.78,0-8.54-.51-9.56.3-.47.38-.51,1.19-.13,1.66.51.59,1.06.47,1.95.47,7.35,0,17.34.93,22.31-2.08,3.78-2.29,6.71-6.42,6.71-12.75,0-7.78.81-11.05-3.23-16.49-3.57-4.84-9.01-5.1-14.41-5.1-7.05,0-11.73-.81-16.57,3.23-4.04,3.36-5.14,7.05-5.14,14.24v34.13c0,1.83.3,2.59,2.08,2.08h-.04Z"/>
        <path class="cls-2" d="M170.03,24.61c1.78-1.78,3.4-3.4,5.14-5.18,1.44-1.49,3.44-3.78,5.44-4.89,3.06-1.66,7.18-.34,8.88-1.44.38-2.59-1.87-1.95-3.87-1.95-1.87,0-3.23,0-4.84.68-3.65,1.4-8.67,7.27-11.86,10.41-2.38,2.34-3.99,4.97-6.29,4.04-1.02-.42-9.56-9.35-11.09-10.88-1.74-1.74-3.36-3.57-6.97-4.12-1.53-.25-3.57-.13-5.23-.13-2.12,0-3.06.38-2.08,2.25,3.4.68,5.91-.59,9.52,1.1,1.74.85,8.8,8.41,10.67,10.28,1.4,1.4,3.36,4.08,6.25,4.12,2.93,0,4.93-2.89,6.33-4.29h0Z"/>
        <path class="cls-2" d="M137,47.05c1.91.85,7.56.51,9.65-.3,3.57-1.4,8.58-7.27,11.39-10.07,2.17-2.17,4.04-4.84,6.12-4.55,1.61.21,9.52,8.75,11.13,10.41,1.7,1.74,3.19,3.57,6.37,4.46,1.19.34,10.07,1.36,7.61-1.61-.68-.81-6.37.08-9.22-1.7-1.15-.72-9.35-9.01-10.88-10.58-1.66-1.66-3.4-4.29-6.88-3.31-4.12,1.19-12.03,13.56-17.42,14.92-4.5,1.15-8.63-1.32-7.95,2.29l.09.04Z"/>
        <path class="cls-2" d="M117.58,13.39c5.35.98,9.82-1.7,9.82,5.65v26.35c0,1.19,0,2.17,1.15,2.25,1.53.08,1.23-1.7,1.23-3.27v-16.53c0-7.78,1.87-16.7-7.22-16.7-3.19,0-6.25-.55-5.01,2.25h.04Z"/>
        <path class="cls-1" d="M128.38,5.18l-5.18-5.18c.34.34.68.34,1.02,0l-5.18,5.18c.34-.34.34-.68,0-1.02l5.18,5.18c-.34-.34-.68-.34-1.02,0l5.18-5.18c-.34.34-.34.68,0,1.02Z"/>
      </g>
    </g>
  </g>
</svg>