<?xml version="1.0" encoding="UTF-8"?>
<svg id="Camada_2" data-name="Camada 2" xmlns="http://www.w3.org/2000/svg" viewBox="0 0 95.21 30.89">
  <defs>
    <style>
      .cls-1 {
        fill: #a2a2a2;
      }

      .cls-2 {
        fill: #cecece;
      }
    </style>
  </defs>
  <g id="Camada_1-2" data-name="Camada 1">
    <g>
      <path class="cls-1" d="M41.27,30.37h-7.77L38.36.53h7.77l-4.86,29.84ZM26.97.53l-7.41,20.52-.88-4.42h0s-2.61-13.42-2.61-13.42c0,0-.32-2.69-3.69-2.69H.14l-.14.51s3.74.78,8.13,3.41l6.75,25.92h8.09L35.33.53h-8.36ZM88.08,30.37h7.13L88.99.53h-6.25c-2.88,0-3.59,2.22-3.59,2.22l-11.59,27.62h8.1l1.62-4.43h9.88l.91,4.43h0ZM79.53,19.82l4.08-11.17,2.3,11.17h-6.38ZM68.18,7.71l1.11-6.41s-3.42-1.3-6.99-1.3c-3.86,0-13.01,1.69-13.01,9.88,0,7.71,10.75,7.8,10.75,11.85s-9.64,3.32-12.82.77l-1.16,6.7s3.47,1.69,8.77,1.69,13.3-2.75,13.3-10.22-10.84-8.48-10.84-11.85c0-3.37,7.57-2.94,10.89-1.11h0Z"/>
      <path class="cls-2" d="M18.69,16.64l-2.61-13.42s-.32-2.69-3.69-2.69H.14l-.14.51s5.89,1.22,11.53,5.79c5.4,4.37,7.16,9.81,7.16,9.81Z"/>
    </g>
  </g>
</svg>