<?xml version="1.0" encoding="UTF-8"?>
<svg id="Camada_2" data-name="Camada 2" xmlns="http://www.w3.org/2000/svg" viewBox="0 0 113.65 41.99">
  <defs>
    <style>
      .cls-1 {
        fill: #a2a2a2;
      }
    </style>
  </defs>
  <g id="Camada_1-2" data-name="Camada 1">
    <g>
      <polygon class="cls-1" points="10.43 10.35 14.65 10.35 12.54 4.98 10.43 10.35"/>
      <polygon class="cls-1" points="25.65 28.37 25.65 30.87 32.75 30.87 32.75 33.55 25.65 33.55 25.65 36.43 33.51 36.43 37.16 32.4 33.71 28.37 25.65 28.37"/>
      <polygon class="cls-1" points="88.27 4.98 85.97 10.35 90.38 10.35 88.27 4.98"/>
      <polygon class="cls-1" points="46.17 37.96 46.17 27.03 41.18 32.4 46.17 37.96"/>
      <path class="cls-1" d="M55.56,30.1c-.19-1.15-.96-1.73-2.11-1.73h-4.03v3.45h4.22c1.15,0,1.92-.57,1.92-1.72Z"/>
      <path class="cls-1" d="M68.98,31.44c.38-.19.58-.77.58-1.34.19-.77-.19-1.15-.58-1.34-.38-.19-.96-.19-1.53-.19h-3.84v3.07h3.83c.57,0,1.15,0,1.53-.19Z"/>
      <path class="cls-1" d="M103.8,0v2.3l-1.15-2.3h-9.01v2.3l-1.15-2.3h-12.27c-2.11,0-3.83.38-5.37,1.15V0h-8.63v1.15c-.96-.77-2.11-1.15-3.64-1.15h-30.87l-2.11,4.79-2.11-4.79h-9.78v2.3l-.96-2.3h-8.44l-3.83,9.01L.08,18.79l-.08.19h9.98l.07-.19,1.15-2.88h2.49l1.15,3.07h11.12v-2.3l.96,2.3h5.56l.96-2.3v2.3h26.65v-4.98h.38q.38,0,.38.58v4.22h13.8v-1.15c1.15.58,2.87,1.15,5.18,1.15h5.75l1.15-3.07h2.68l1.15,3.07h11.12v-2.88l1.73,2.88h9.01V0h-8.63ZM38.81,16.1h-3.07V5.56l-.19.44h0s-4.46,10.1-4.46,10.1h-2.83l-4.6-10.54v10.54h-6.52l-1.34-2.88h-6.52l-1.34,2.88h-3.37L10.24,2.68h4.79l5.37,12.84V2.68h5.08l.09.19h0l2.42,5.26,1.74,3.94.06-.2,3.83-9.2h5.18v13.42h0ZM52.04,5.56h-7.48v2.49h7.29v2.68h-7.29v2.68h7.48v2.87h-10.74V2.68h10.74v2.88h0ZM65.71,10.5s.01,0,.02.01c.07.08.13.15.19.23.37.48.66,1.2.68,2.25,0,.02,0,.04,0,.05,0,.01,0,.02,0,.03,0,0,0,.01,0,.02,0,.11,0,.21,0,.33v2.68h-2.88v-1.53c0-.77,0-1.92-.58-2.68-.18-.18-.36-.3-.56-.39-.29-.19-.83-.19-1.74-.19h-3.45v4.79h-3.26V2.68h7.29c1.72,0,2.88,0,3.83.58.94.56,1.51,1.5,1.53,2.98-.04,2.04-1.35,3.16-2.3,3.54,0,0,.64.13,1.21.73ZM72.16,16.1h-3.26V2.68h3.26v13.42ZM109.55,16.1h-4.22l-6.13-10.16v8.44l-.02-.02v1.75h-3.24s-3.26,0-3.26,0l-1.15-2.88h-6.71l-1.15,3.07h-3.64c-1.53,0-3.45-.38-4.6-1.53-1.15-1.15-1.72-2.68-1.72-5.18,0-1.92.38-3.84,1.72-5.37.96-1.15,2.68-1.53,4.79-1.53h3.07v2.88h-3.07c-1.15,0-1.72.19-2.49.77-.57.57-.96,1.72-.96,3.07,0,1.53.19,2.49.96,3.26.58.58,1.34.77,2.3.77h1.34l4.41-10.54h4.79l5.37,12.84V2.88h4.79l5.56,9.39V2.88h3.26v13.23h0,0Z"/>
      <path class="cls-1" d="M62.98,8.27c.06-.06.11-.13.15-.21.17-.27.37-.77.27-1.45,0-.06-.02-.12-.03-.17,0-.02,0-.03,0-.04h0c-.1-.33-.34-.53-.58-.65-.38-.19-.96-.19-1.53-.19h-3.83v3.07h3.83c.57,0,1.15,0,1.53-.19.06-.03.11-.07.16-.11h0s.02-.02.05-.05Z"/>
      <path class="cls-1" d="M113.65,35.28c0-1.34-.38-2.68-.96-3.64v-8.63h0v-.58h-9.23c-1.2,0-2.65,1.15-2.65,1.15v-1.15h-8.82c-1.34,0-3.07.38-3.83,1.15v-1.15h-15.72v1.15c-1.15-.96-3.26-1.15-4.22-1.15h-10.35v1.15c-.96-.96-3.26-1.15-4.41-1.15h-11.5l-2.68,2.88-2.49-2.88h-17.25v19.36h16.87l2.77-2.77,2.4,2.77h10.74v-4.41h.96c1.34,0,3.07,0,4.41-.58v5.18h8.63v-4.98h.38q.58,0,.58.58v4.41h26.07c1.73,0,3.45-.38,4.41-1.15v1.15h8.24c1.72,0,3.45-.19,4.6-.96,1.77-1.06,2.88-2.93,3.04-5.17,0-.07.02-.13.02-.2h-.01c0-.13.01-.26.01-.38ZM53.26,34.13h-3.84v4.98h-6.3l-3.67-4.22h-.01s-.18-.19-.18-.19l-4.22,4.41h-12.27v-13.42h12.46l3.4,3.73.72.78.1-.1,4.03-4.41h10.16c1.97,0,4.18.49,5.02,2.49.1.4.16.84.16,1.34,0,3.83-2.68,4.6-5.56,4.6ZM72.43,33.93c.38.57.57,1.34.57,2.49v2.68h-3.26v-1.72c0-.77,0-2.11-.58-2.69-.38-.57-1.15-.57-2.3-.57h-3.45v4.98h-3.26v-13.61h7.28c1.53,0,2.87,0,3.83.57.96.58,1.72,1.53,1.72,3.07,0,2.11-1.34,3.26-2.3,3.64.96.38,1.53.77,1.73,1.15ZM85.66,28.37h-7.48v2.49h7.29v2.68h-7.29v2.68h7.48v2.88h-10.74v-13.61h10.74v2.87ZM93.71,39.11h-6.14v-2.88h6.14c.57,0,.96,0,1.34-.38.19-.19.38-.57.38-.96s-.19-.77-.38-.96c-.19-.19-.58-.38-1.15-.38-3.07-.19-6.71,0-6.71-4.22,0-1.92,1.15-4.03,4.6-4.03h6.33v3.26h-5.94c-.57,0-.96,0-1.34.19-.38.19-.38.58-.38.96,0,.58.38.77.77.96.38.19.77.19,1.15.19h1.73c1.73,0,2.88.38,3.64,1.15.58.58.96,1.53.96,2.88,0,2.87-1.73,4.22-4.98,4.22ZM110.2,37.77c-.77.77-2.11,1.34-4.03,1.34h-6.13v-2.88h6.13c.58,0,.96,0,1.34-.38.19-.19.38-.57.38-.96s-.19-.77-.38-.96c-.19-.19-.57-.38-1.15-.38-3.07-.19-6.71,0-6.71-4.22,0-1.82,1.04-3.47,3.61-3.96.31-.04.63-.07.99-.07h6.33v3.26h-5.94c-.58,0-.96,0-1.34.19-.19.19-.38.58-.38.96,0,.58.19.77.77.96.38.19.77.19,1.15.19h1.72c.84,0,1.47.1,2.05.31.53.19,2.29.98,2.68,3.03.03.22.06.44.06.69,0,1.15-.38,2.11-1.15,2.87Z"/>
    </g>
  </g>
</svg>