<?xml version="1.0" encoding="UTF-8"?>
<svg id="Camada_2" data-name="Camada 2" xmlns="http://www.w3.org/2000/svg" viewBox="0 0 120.34 83.58">
  <defs>
    <style>
      .cls-1 {
        fill: #a2a2a2;
      }
    </style>
  </defs>
  <g id="Camada_1-2" data-name="Camada 1">
    <g>
      <path class="cls-1" d="M17.6,59.23c0-4.51-3.59-8.91-10.19-8.91-1.89,0-3.34.05-4.41.05-.99,0-2.01,0-3-.05v.66c1.14.02,2.34-.13,2.34,2.16v12.35c-.07,1.73-.81,1.78-2.34,1.94v.66c1.14-.03,2.27-.05,3.41-.05s2.39.05,3.69.05c9.01,0,10.49-6.34,10.49-8.86ZM4.84,65.09v-13.85c.46-.03.94-.1,1.99-.1,4.91,0,7.97,3.44,7.97,8.2,0,3.79-1.81,7.94-7.31,7.94-1.25,0-2.65-.23-2.65-2.19Z"/>
      <path class="cls-1" d="M23.94,68.09v-.66h-.43c-.71,0-1.28,0-1.28-.84v-9.78c0-.21-.05-.36-.18-.36s-.28.03-.46.13c-.1.08-1.53.56-2.72.92v.41c.94.51,1.32.66,1.32,1.78v6.9c0,.84-.51.84-1.22.84h-.48v.66c.94-.03,1.86-.05,2.78-.05s1.81.05,2.67.05Z"/>
      <path class="cls-1" d="M21.21,52.53c.69,0,1.25-.58,1.25-1.27s-.59-1.22-1.25-1.22-1.25.59-1.25,1.22.58,1.27,1.25,1.27Z"/>
      <path class="cls-1" d="M37.46,67.43h-.46c-.71,0-1.27,0-1.27-.84v-6.57c0-1.99-.76-3.57-2.93-3.57-1.71,0-2.96.87-4.41,1.91v-1.66c0-.2-.07-.25-.15-.25-1.22.54-2.27.87-3.36,1.22v.48c1.19.48,1.48.74,1.48,1.68v6.75c0,.84-.51.84-1.22.84h-.46v.66c.92-.03,1.83-.05,2.75-.05s1.81.05,2.7.05v-.66h-.46c-.71,0-1.28,0-1.28-.84v-7.53c.84-.56,2.14-1.22,2.96-1.22,1.45,0,2.34.71,2.34,2.17v6.59c0,.84-.51.84-1.22.84h-.46v.66c.92-.03,1.83-.05,2.75-.05s1.81.05,2.7.05v-.66Z"/>
      <path class="cls-1" d="M46.55,61.06l.23-.15c.02-.15.02-.3.02-.46-.02-2.7-2.24-4-4.31-4-1.78,0-5.14,1.48-5.14,6.47,0,1.63.81,5.55,4.86,5.55,2.09,0,3.54-1.33,4.71-2.88l-.36-.36c-.94.94-2.04,1.7-3.44,1.7-2.03,0-3.59-1.99-3.74-4.4-.05-.87-.05-1.25,0-1.48h7.15ZM42.4,57.27c1.43,0,2.22,1.04,2.22,2.34,0,.31-.07.64-.71.64h-4.43c.31-1.84,1.38-2.98,2.93-2.98Z"/>
      <path class="cls-1" d="M53.2,58.49c.89,0,.89.61,1.68.61.71,0,1.19-.61,1.19-1.3,0-.92-.81-1.35-1.45-1.35-1.55,0-2.62,1.63-3.26,2.62h-.05v-2.29c0-.26-.08-.33-.23-.33-.23,0-1.25.66-3.11,1.45v.38c.38.2,1.32.36,1.32,1.15v7.15c0,.84-.51.84-1.22.84h-.69v.66c.92-.03,1.99-.05,3.03-.05,1.1,0,2.16.02,3.56.05v-.66h-1.42c-.71,0-1.22,0-1.22-.84v-5.98c0-1.53,1.43-2.12,1.86-2.12Z"/>
      <path class="cls-1" d="M60.4,67.66c-1.86,0-2.88-1.43-3.21-3.11l-.46.13.28,2.93c.89.51,2.09.87,3.11.87,3.03,0,4.38-1.78,4.38-3.46,0-4-5.91-3.08-5.91-6.06,0-1.1.97-1.68,1.99-1.68,1.63,0,2.52.92,2.78,2.52h.59l-.18-2.6c-.99-.51-2.09-.74-2.9-.74-2.8,0-3.95,1.83-3.95,3.26,0,4.1,5.55,3.13,5.55,6.14,0,.89-.56,1.81-2.06,1.81Z"/>
      <path class="cls-1" d="M86.94,67.12l.59-3.72-.59-.15c-.51,2.68-2.6,4.41-5.12,4.41-3.92,0-7.59-3.69-7.59-8.84,0-6.11,4.25-8.07,7.18-8.07s4.96,1.2,5.45,4.17h.63l-.25-3.64c-1.96-.69-3.95-1.35-6.01-1.35-4.99,0-9.65,3.74-9.65,8.97,0,5.73,3.77,9.57,9.72,9.57,1.68,0,4.56-.69,5.63-1.35Z"/>
      <path class="cls-1" d="M93.86,68.09v-.66h-.43c-.71,0-1.27,0-1.27-.84v-17.59c0-.2-.05-.36-.21-.36-.08,0-.28.13-.56.28-.54.31-1.61.77-2.62,1.1v.41c.97.28,1.35.33,1.35,1.99v14.18c0,.84-.51.84-1.22.84h-.48v.66c.94-.03,1.86-.05,2.78-.05s1.81.05,2.67.05Z"/>
      <path class="cls-1" d="M95.39,58.92v6.52c0,2.14,1.43,3.03,2.8,3.03,1.81,0,2.98-.89,4.51-2.14v2.06l.13.08c.48-.15,2.57-.69,3.67-.79v-.54c-.33,0-.71.02-1.02.02-.43,0-.71-.02-.71-.48v-9.39c0-.28,0-.46-.21-.46-.25,0-1.68.2-3.97.36v.46c.92.25,2.14.53,2.14,1.04v6.85c-1.07.89-2.22,1.55-3.08,1.55-2.22,0-2.22-2.19-2.22-2.95v-6.57c0-.56,0-.74-.28-.74-.33,0-2.36.15-3.28.18v.49c1.42.13,1.53.76,1.53,1.43Z"/>
      <path class="cls-1" d="M107.79,52.41v10.95c0,1.55-.13,3.03-.36,4.53l.53.28.76-.59c.66.28,1.66.89,3.54.89,3.64,0,6.09-3.34,6.09-6.67,0-2.78-1.78-5.35-4.74-5.35-1.4,0-2.78.97-3.79,1.83v-9.29c0-.2-.05-.36-.2-.36-.08,0-.28.13-.56.28-.53.31-1.6.77-2.62,1.1v.41c.97.28,1.35.33,1.35,1.99ZM109.83,59.03c.69-.59,1.48-1.2,2.42-1.2,1.99,0,4.07,2.29,4.07,5.04,0,2.27-1.15,4.94-3.87,4.94-1.71,0-2.62-1.63-2.62-2.6v-6.19Z"/>
      <path class="cls-1" d="M14.17,73.64c-.65,0-1.29-.05-1.94-.05h-.06v.54h.37c.4,0,1.14.14,1.15,1.24v5.1l-6.09-6.85c-.47-.02-.87.03-1.28.03-.52,0-1.06-.05-1.59-.05h-.06v.54h.24c.59,0,1.2.45,1.2,1.19v5.84c0,1.1-.27,1.69-1.19,1.7h-.26v.54h.06c.63,0,1.26-.06,1.88-.06s1.19.06,1.79.06h.06v-.54h-.3c-1.04-.01-1.23-.36-1.24-1.56v-5.55l7.03,7.84.57.02h.07v-.07c-.08-.42-.09-.9-.09-1.39v-6.3c.02-1.63.6-1.68,1.18-1.7h.27v-.54h-.06c-.57,0-1.14.05-1.7.05Z"/>
      <path class="cls-1" d="M25.51,73.14v.07c-.03.36-.31.37-.7.37h-7.22c-.35,0-.61,0-.7-.36v-.04h-.45v.06c0,.4-.03.78-.08,1.17-.04.4-.11.79-.17,1.18v.07s.53,0,.53,0v-.05c.24-1.02.21-1.2,1.24-1.22h2.21v7.34c-.02,1.07-.32,1.08-1.09,1.1h-.32v.54h.06c.54,0,1.51-.05,2.34-.05.74,0,1.71.05,2.26.05h.06v-.54h-.32c-.66-.01-1.08-.09-1.09-1.13v-7.31h2.21c.88,0,.93.75.97,1.28v.08s.49-.18.49-.18l.04-.02v-.04c0-.37,0-.75.03-1.12.04-.37.1-.74.15-1.12v-.06s-.38-.06-.38-.06h-.06Z"/>
      <path class="cls-1" d="M33.79,80.94v.06c-.43,1.55-1.1,1.64-2.77,1.65-.9,0-1.63,0-1.63-.84v-3.17h1.6c.92,0,.93.47,1.02,1.32v.06s.49-.1.49-.1h.05s0-.06,0-.06c-.03-.53-.04-1.05-.04-1.58s.02-1.08.04-1.62v-.06s-.53,0-.53,0v.06c-.1.75-.24,1.16-1.04,1.16h-1.59v-3.51h1.87c1.43.01,1.55.67,1.63,1.57v.07s.49-.13.49-.13h.05s0-.06,0-.06c-.03-.39-.04-.92-.04-1.4,0-.26,0-.51.01-.71v-.06s-.06,0-.06,0c-.94,0-2.38.05-3.55.05s-2.6-.05-3.45-.05h-.06v.54h.25c.5,0,.96.05.96.73v7.26c0,.68-.46.72-.96.73h-.25v.54h.06c.79,0,2.44-.06,3.69-.06s2.84.06,3.73.06h.05v-.05c.14-.73.3-1.47.48-2.2v-.06s-.43-.12-.43-.12h-.06Z"/>
      <path class="cls-1" d="M43.02,82.03l-2.33-3.49c1.07-.44,1.89-1.22,1.89-2.47,0-2.01-1.61-2.49-3.36-2.5-.74,0-1.4.05-2.23.05s-1.7-.05-2.15-.05h-.06v.54h.31c.43.01.91,0,.92.99v7.04c0,.47-.42.68-.92.69h-.31v.54h.06c.7,0,1.35-.06,2.01-.06.79,0,1.59.06,2.38.06h.06v-.54h-.31c-.64-.01-1.06,0-1.07-1.05v-2.9h.82c.89,1.58,1.81,3.07,2.87,4.46.48.02.93-.03,1.35-.03.46,0,.9.06,1.36.06h.06v-.53h-.05c-.67-.09-.92-.24-1.3-.81ZM40.62,76.17c-.01,1.61-.7,2.09-2.08,2.1h-.62v-4.01c.18-.02.35-.05.73-.05,1.21,0,1.96.76,1.97,1.97Z"/>
      <path class="cls-1" d="M55.95,73.58h-.06c-.57,0-1.14.05-1.7.05-.65,0-1.29-.05-1.94-.05h-.06v.54h.37c.4,0,1.14.14,1.14,1.24v5.1l-6.09-6.86c-.46-.02-.87.04-1.27.04-.52,0-1.07-.05-1.59-.05h-.06v.54h.24c.59,0,1.2.45,1.2,1.18v5.83c0,1.11-.27,1.7-1.19,1.7h-.25v.54h.06c.62,0,1.26-.06,1.88-.06s1.19.06,1.79.06h.06v-.54h-.29c-1.04-.01-1.23-.35-1.24-1.56v-5.55l7.03,7.84.57.02h.07v-.07c-.08-.42-.09-.91-.09-1.39v-6.3c.01-1.63.6-1.69,1.17-1.7h.27v-.54Z"/>
      <path class="cls-1" d="M64.56,82.32c-.18-.41-.35-.92-.51-1.41l-2.55-7.25c-.04-.11-.09-.24-.13-.35-.04-.07-.12-.08-.15-.08-.06,0-.09.02-.13.03-.27.17-.82.45-1.26.59-.12.55-.37,1.24-.55,1.76l-2.22,6.36c-.2.56-.63.86-1.15.86h-.14v.54h.06c.5-.03,1-.06,1.49-.06.55,0,1.12.03,1.67.06h.06s0-.54,0-.54h-.21c-.46,0-.98-.08-.98-.42,0-.23.17-.59.31-1.06l.43-1.4h3.06l.53,1.57c.15.44.28.82.27.98,0,.27-.48.34-.8.34h-.21v.54h.06c.71-.03,1.4-.06,2.08-.06s1.28.03,1.91.06h.06s0-.54,0-.54h-.14c-.45,0-.7-.15-.86-.52ZM61.33,79.06h-2.43l1.22-3.71,1.21,3.71Z"/>
      <path class="cls-1" d="M73.66,73.14v.07c-.03.36-.31.37-.69.37h-7.22c-.35,0-.61,0-.7-.36v-.04h-.45v.06c0,.4-.03.78-.08,1.17-.04.4-.11.79-.17,1.18v.07s.53,0,.53,0v-.05c.24-1.02.21-1.2,1.24-1.22h2.21v7.34c-.02,1.07-.32,1.08-1.09,1.1h-.32v.54h.06c.54,0,1.51-.05,2.34-.05.74,0,1.72.05,2.26.05h.06v-.54h-.32c-.66-.01-1.08-.09-1.09-1.13v-7.31h2.21c.88,0,.93.75.97,1.28v.08s.49-.18.49-.18l.04-.02v-.04c0-.37,0-.75.03-1.12.04-.37.09-.74.15-1.12v-.06s-.38-.06-.38-.06h-.06Z"/>
      <path class="cls-1" d="M76.61,73.64c-.67,0-1.51-.05-2.05-.05h-.06v.54h.25c.5,0,.96.05.96.73v7.26c0,.68-.46.72-.96.73h-.25v.54h.06c.54,0,1.36-.06,2.04-.06s1.52.06,2.19.06h.06v-.54h-.25c-.51,0-.96-.05-.97-.73v-7.26c0-.68.46-.72.97-.73h.25v-.54h-.06c-.66,0-1.49.05-2.18.05Z"/>
      <path class="cls-1" d="M84.31,73.38c-2.91,0-5.17,2.26-5.17,5.17,0,3.01,2.28,5.03,5.24,5.03,2.98,0,5.29-2.15,5.3-5.37,0-2.99-2.39-4.84-5.37-4.84ZM87.62,78.52c0,2.02-.46,4.33-3.1,4.33-2.19,0-3.32-2.32-3.32-4.79,0-1.85.71-3.95,3.09-3.96,2.25,0,3.33,2.41,3.33,4.42Z"/>
      <path class="cls-1" d="M101.18,73.58h-.06c-.58,0-1.14.05-1.71.05-.65,0-1.29-.05-1.94-.05h-.06v.54h.36c.4,0,1.14.14,1.15,1.24v5.1l-6.09-6.85c-.47-.02-.87.03-1.28.03-.52,0-1.06-.05-1.6-.05h-.06v.54h.24c.6,0,1.2.45,1.2,1.18v5.84c-.01,1.1-.27,1.69-1.19,1.69h-.25v.54h.06c.63,0,1.27-.06,1.89-.06s1.19.06,1.79.06h.06v-.54h-.3c-1.04-.01-1.22-.35-1.24-1.56v-5.55l7.03,7.84.57.02h.07v-.07c-.08-.42-.09-.91-.09-1.39v-6.3c.01-1.63.6-1.68,1.17-1.7h.27v-.54Z"/>
      <path class="cls-1" d="M109.79,82.32c-.18-.41-.35-.93-.51-1.41l-2.55-7.25c-.04-.11-.09-.24-.13-.35-.04-.08-.12-.08-.15-.08-.06,0-.1.02-.13.03-.27.17-.83.45-1.26.6-.12.55-.37,1.24-.55,1.75l-2.22,6.36c-.2.56-.63.86-1.15.86h-.14v.54h.06c.5-.03,1-.06,1.49-.06.55,0,1.12.03,1.67.06h.06s0-.54,0-.54h-.21c-.46,0-.98-.09-.98-.43,0-.22.16-.59.3-1.06l.43-1.4h3.06l.53,1.57c.16.44.28.82.28.98,0,.27-.48.34-.8.34h-.21v.54h.06c.71-.03,1.4-.06,2.08-.06s1.28.03,1.91.06h.06s0-.54,0-.54h-.14c-.44,0-.69-.15-.86-.52ZM106.56,79.06h-2.42l1.22-3.71,1.21,3.71ZM103.35,81.33h0s0,0,0,0Z"/>
      <path class="cls-1" d="M118.58,80.95c-.08.3-.2.68-.42.98-.24.33-.73.66-1.29.72-.36.04-.71.05-1.05.05-.27,0-.52,0-.77-.03-.43-.06-.77-.2-.78-.72v-7.15c.01-.7.35-.67.88-.69h.4v-.54h-.06c-.71,0-1.4.05-2.11.05s-1.45-.05-2.19-.05h-.06v.54h.25c.5,0,.98.05.98.73v7.12c0,.82-.48.86-.98.87h-.25v.54h.06c1.22,0,2.44-.06,3.66-.06s2.44.06,3.66.06h.05v-.05c.18-.79.37-1.56.53-2.35v-.07s-.51,0-.51,0v.05Z"/>
      <path class="cls-1" d="M55.83,48.61h6.3c13.29,0,25.42-10.84,25.42-24.09C87.55,10.02,75.42,0,62.13,0h-6.3c-13.45,0-24.52,10.02-24.52,24.52,0,13.26,11.07,24.16,24.52,24.09ZM55.89,2.01c12.29,0,22.25,9.96,22.25,22.25,0,12.29-9.96,22.25-22.25,22.25-12.29,0-22.25-9.96-22.25-22.25,0-12.29,9.96-22.25,22.25-22.25Z"/>
      <path class="cls-1" d="M50.83,37.42V11.1c-5.29,2.04-9.04,7.15-9.05,13.16.01,6.01,3.76,11.12,9.05,13.16Z"/>
      <path class="cls-1" d="M69.99,24.26c0-6.01-3.77-11.13-9.06-13.16v26.33c5.29-2.03,9.05-7.15,9.06-13.16Z"/>
      <path class="cls-1" d="M118.88,73.25c-.83,0-1.46.64-1.46,1.46s.62,1.45,1.46,1.45,1.46-.64,1.46-1.45-.62-1.46-1.46-1.46ZM118.88,75.9c-.66,0-1.16-.56-1.16-1.18s.5-1.19,1.16-1.19,1.15.56,1.15,1.19-.5,1.18-1.15,1.18Z"/>
      <path class="cls-1" d="M119.29,75.09l-.24-.33c.2-.06.35-.22.35-.44,0-.27-.24-.39-.49-.39h-.75v.07c.19,0,.21.04.21.2v1.08c0,.11-.03.1-.21.13v.07h.7v-.07c-.18-.03-.21-.02-.21-.12v-.48h.16c.27.38.39.67.52.67h.28v-.05c-.08-.05-.21-.19-.32-.34ZM118.81,74.71h-.17v-.69h.16c.15,0,.28.08.28.31s-.09.37-.28.37Z"/>
    </g>
  </g>
</svg>