<?xml version="1.0" encoding="UTF-8"?>
<svg id="Camada_2" data-name="Camada 2" xmlns="http://www.w3.org/2000/svg" viewBox="0 0 97.25 42.33">
  <defs>
    <style>
      .cls-1 {
        fill: #a2a2a2;
      }
    </style>
  </defs>
  <g id="Camada_1-2" data-name="Camada 1">
    <path id="path2997" class="cls-1" d="M34,19.72c-.05-.17-.13-.42-.2-.54l-.12-.23-.21-.22-.21-.21-.25-.12-.25-.12-.36-.08-.36-.08-.44.03-.44.03-.34.11-.34.11-.26.15c-.14.08-.39.25-.54.38l-.28.23-.13.68c-.07.37-.2,1.07-.28,1.54-.08.47-.21,1.16-.28,1.52l-.13.66-.03.42-.03.42.06.26c.03.15.11.38.17.51l.11.25.38.36.27.12.27.13.27.05.27.05.41-.03.41-.02.42-.14.42-.14.18-.13c.1-.08.26-.2.35-.28.09-.08.25-.26.35-.4.1-.14.27-.43.39-.64l.2-.39.17-.48c.09-.26.22-.73.29-1.03l.13-.55.03-.93.03-.93-.08-.32ZM44.39,19.31l-.04-.29-.07-.13c-.04-.07-.14-.2-.22-.29l-.15-.16-.27-.13-.28-.13-.38-.05-.38-.05-.49.03c-.27.02-.58.05-.69.08-.11.03-.34.12-.52.2l-.32.15-.33.32-.33.32-.15.29c-.08.16-.21.46-.28.65-.07.2-.13.37-.13.38s1.11.02,2.48.02h2.47l.05-.48.05-.48-.05-.29ZM68.37,21.81h-2.46l-.39.09-.39.09-.32.15-.32.15-.3.3-.3.3-.16.32c-.09.18-.19.45-.24.61l-.08.29.02.47.02.47.1.2c.06.11.16.27.23.35l.12.14.22.12c.12.06.34.14.48.18l.26.07.39-.02.39-.02.4-.13.4-.13.18-.12c.1-.07.2-.12.22-.12s.17-.13.33-.29l.29-.29.18-.3c.1-.17.18-.31.18-.33s.07-.2.15-.4c.08-.2.2-.58.27-.84.07-.26.16-.64.19-.85l.07-.39-.16-.06ZM85.72,18.48c-.08-.03-.35-.11-.61-.18l-.47-.13h-1.62s-.39.13-.39.13l-.39.13-.22.14c-.12.07-.32.24-.45.36-.13.12-.32.34-.43.49-.11.15-.27.4-.35.56s-.22.44-.3.63c-.08.18-.15.36-.15.39,0,.03-.06.24-.12.45l-.12.39-.08.57-.08.57v.64s-.01.64-.01.64l.07.32.07.32.15.29.15.29.2.17.2.16.24.1c.13.06.35.12.49.15l.25.05.37-.02.37-.02.39-.13.39-.12.27-.18c.15-.1.34-.25.44-.33.09-.08.23-.25.32-.37.08-.12.22-.35.29-.51.07-.16.17-.4.21-.54.04-.14.12-.42.17-.62.05-.2.16-.67.23-1.03.07-.36.19-1.02.27-1.45.08-.43.19-1.05.25-1.38.06-.32.12-.65.13-.72l.03-.13-.14-.05ZM85.72,18.48c-.08-.03-.35-.11-.61-.18l-.47-.13h-1.62s-.39.13-.39.13l-.39.13-.22.14c-.12.07-.32.24-.45.36-.13.12-.32.34-.43.49-.11.15-.27.4-.35.56s-.22.44-.3.63c-.08.18-.15.36-.15.39,0,.03-.06.24-.12.45l-.12.39-.08.57-.08.57v.64s-.01.64-.01.64l.07.32.07.32.15.29.15.29.2.17.2.16.24.1c.13.06.35.12.49.15l.25.05.37-.02.37-.02.39-.13.39-.12.27-.18c.15-.1.34-.25.44-.33.09-.08.23-.25.32-.37.08-.12.22-.35.29-.51.07-.16.17-.4.21-.54.04-.14.12-.42.17-.62.05-.2.16-.67.23-1.03.07-.36.19-1.02.27-1.45.08-.43.19-1.05.25-1.38.06-.32.12-.65.13-.72l.03-.13-.14-.05ZM68.37,21.81h-2.46l-.39.09-.39.09-.32.15-.32.15-.3.3-.3.3-.16.32c-.09.18-.19.45-.24.61l-.08.29.02.47.02.47.1.2c.06.11.16.27.23.35l.12.14.22.12c.12.06.34.14.48.18l.26.07.39-.02.39-.02.4-.13.4-.13.18-.12c.1-.07.2-.12.22-.12s.17-.13.33-.29l.29-.29.18-.3c.1-.17.18-.31.18-.33s.07-.2.15-.4c.08-.2.2-.58.27-.84.07-.26.16-.64.19-.85l.07-.39-.16-.06ZM44.39,19.31l-.04-.29-.07-.13c-.04-.07-.14-.2-.22-.29l-.15-.16-.27-.13-.28-.13-.38-.05-.38-.05-.49.03c-.27.02-.58.05-.69.08-.11.03-.34.12-.52.2l-.32.15-.33.32-.33.32-.15.29c-.08.16-.21.46-.28.65-.07.2-.13.37-.13.38s1.11.02,2.48.02h2.47l.05-.48.05-.48-.05-.29ZM34,19.72c-.05-.17-.13-.42-.2-.54l-.12-.23-.21-.22-.21-.21-.25-.12-.25-.12-.36-.08-.36-.08-.44.03-.44.03-.34.11-.34.11-.26.15c-.14.08-.39.25-.54.38l-.28.23-.13.68c-.07.37-.2,1.07-.28,1.54-.08.47-.21,1.16-.28,1.52l-.13.66-.03.42-.03.42.06.26c.03.15.11.38.17.51l.11.25.38.36.27.12.27.13.27.05.27.05.41-.03.41-.02.42-.14.42-.14.18-.13c.1-.08.26-.2.35-.28.09-.08.25-.26.35-.4.1-.14.27-.43.39-.64l.2-.39.17-.48c.09-.26.22-.73.29-1.03l.13-.55.03-.93.03-.93-.08-.32ZM34,19.72c-.05-.17-.13-.42-.2-.54l-.12-.23-.21-.22-.21-.21-.25-.12-.25-.12-.36-.08-.36-.08-.44.03-.44.03-.34.11-.34.11-.26.15c-.14.08-.39.25-.54.38l-.28.23-.13.68c-.07.37-.2,1.07-.28,1.54-.08.47-.21,1.16-.28,1.52l-.13.66-.03.42-.03.42.06.26c.03.15.11.38.17.51l.11.25.38.36.27.12.27.13.27.05.27.05.41-.03.41-.02.42-.14.42-.14.18-.13c.1-.08.26-.2.35-.28.09-.08.25-.26.35-.4.1-.14.27-.43.39-.64l.2-.39.17-.48c.09-.26.22-.73.29-1.03l.13-.55.03-.93.03-.93-.08-.32ZM44.39,19.31l-.04-.29-.07-.13c-.04-.07-.14-.2-.22-.29l-.15-.16-.27-.13-.28-.13-.38-.05-.38-.05-.49.03c-.27.02-.58.05-.69.08-.11.03-.34.12-.52.2l-.32.15-.33.32-.33.32-.15.29c-.08.16-.21.46-.28.65-.07.2-.13.37-.13.38s1.11.02,2.48.02h2.47l.05-.48.05-.48-.05-.29ZM68.37,21.81h-2.46l-.39.09-.39.09-.32.15-.32.15-.3.3-.3.3-.16.32c-.09.18-.19.45-.24.61l-.08.29.02.47.02.47.1.2c.06.11.16.27.23.35l.12.14.22.12c.12.06.34.14.48.18l.26.07.39-.02.39-.02.4-.13.4-.13.18-.12c.1-.07.2-.12.22-.12s.17-.13.33-.29l.29-.29.18-.3c.1-.17.18-.31.18-.33s.07-.2.15-.4c.08-.2.2-.58.27-.84.07-.26.16-.64.19-.85l.07-.39-.16-.06ZM85.72,18.48c-.08-.03-.35-.11-.61-.18l-.47-.13h-1.62s-.39.13-.39.13l-.39.13-.22.14c-.12.07-.32.24-.45.36-.13.12-.32.34-.43.49-.11.15-.27.4-.35.56s-.22.44-.3.63c-.08.18-.15.36-.15.39,0,.03-.06.24-.12.45l-.12.39-.08.57-.08.57v.64s-.01.64-.01.64l.07.32.07.32.15.29.15.29.2.17.2.16.24.1c.13.06.35.12.49.15l.25.05.37-.02.37-.02.39-.13.39-.12.27-.18c.15-.1.34-.25.44-.33.09-.08.23-.25.32-.37.08-.12.22-.35.29-.51.07-.16.17-.4.21-.54.04-.14.12-.42.17-.62.05-.2.16-.67.23-1.03.07-.36.19-1.02.27-1.45.08-.43.19-1.05.25-1.38.06-.32.12-.65.13-.72l.03-.13-.14-.05ZM85.72,18.48c-.08-.03-.35-.11-.61-.18l-.47-.13h-1.62s-.39.13-.39.13l-.39.13-.22.14c-.12.07-.32.24-.45.36-.13.12-.32.34-.43.49-.11.15-.27.4-.35.56s-.22.44-.3.63c-.08.18-.15.36-.15.39,0,.03-.06.24-.12.45l-.12.39-.08.57-.08.57v.64s-.01.64-.01.64l.07.32.07.32.15.29.15.29.2.17.2.16.24.1c.13.06.35.12.49.15l.25.05.37-.02.37-.02.39-.13.39-.12.27-.18c.15-.1.34-.25.44-.33.09-.08.23-.25.32-.37.08-.12.22-.35.29-.51.07-.16.17-.4.21-.54.04-.14.12-.42.17-.62.05-.2.16-.67.23-1.03.07-.36.19-1.02.27-1.45.08-.43.19-1.05.25-1.38.06-.32.12-.65.13-.72l.03-.13-.14-.05ZM68.37,21.81h-2.46l-.39.09-.39.09-.32.15-.32.15-.3.3-.3.3-.16.32c-.09.18-.19.45-.24.61l-.08.29.02.47.02.47.1.2c.06.11.16.27.23.35l.12.14.22.12c.12.06.34.14.48.18l.26.07.39-.02.39-.02.4-.13.4-.13.18-.12c.1-.07.2-.12.22-.12s.17-.13.33-.29l.29-.29.18-.3c.1-.17.18-.31.18-.33s.07-.2.15-.4c.08-.2.2-.58.27-.84.07-.26.16-.64.19-.85l.07-.39-.16-.06ZM44.39,19.31l-.04-.29-.07-.13c-.04-.07-.14-.2-.22-.29l-.15-.16-.27-.13-.28-.13-.38-.05-.38-.05-.49.03c-.27.02-.58.05-.69.08-.11.03-.34.12-.52.2l-.32.15-.33.32-.33.32-.15.29c-.08.16-.21.46-.28.65-.07.2-.13.37-.13.38s1.11.02,2.48.02h2.47l.05-.48.05-.48-.05-.29ZM34,19.72c-.05-.17-.13-.42-.2-.54l-.12-.23-.21-.22-.21-.21-.25-.12-.25-.12-.36-.08-.36-.08-.44.03-.44.03-.34.11-.34.11-.26.15c-.14.08-.39.25-.54.38l-.28.23-.13.68c-.07.37-.2,1.07-.28,1.54-.08.47-.21,1.16-.28,1.52l-.13.66-.03.42-.03.42.06.26c.03.15.11.38.17.51l.11.25.38.36.27.12.27.13.27.05.27.05.41-.03.41-.02.42-.14.42-.14.18-.13c.1-.08.26-.2.35-.28.09-.08.25-.26.35-.4.1-.14.27-.43.39-.64l.2-.39.17-.48c.09-.26.22-.73.29-1.03l.13-.55.03-.93.03-.93-.08-.32ZM34,19.72c-.05-.17-.13-.42-.2-.54l-.12-.23-.21-.22-.21-.21-.25-.12-.25-.12-.36-.08-.36-.08-.44.03-.44.03-.34.11-.34.11-.26.15c-.14.08-.39.25-.54.38l-.28.23-.13.68c-.07.37-.2,1.07-.28,1.54-.08.47-.21,1.16-.28,1.52l-.13.66-.03.42-.03.42.06.26c.03.15.11.38.17.51l.11.25.38.36.27.12.27.13.27.05.27.05.41-.03.41-.02.42-.14.42-.14.18-.13c.1-.08.26-.2.35-.28.09-.08.25-.26.35-.4.1-.14.27-.43.39-.64l.2-.39.17-.48c.09-.26.22-.73.29-1.03l.13-.55.03-.93.03-.93-.08-.32ZM44.39,19.31l-.04-.29-.07-.13c-.04-.07-.14-.2-.22-.29l-.15-.16-.27-.13-.28-.13-.38-.05-.38-.05-.49.03c-.27.02-.58.05-.69.08-.11.03-.34.12-.52.2l-.32.15-.33.32-.33.32-.15.29c-.08.16-.21.46-.28.65-.07.2-.13.37-.13.38s1.11.02,2.48.02h2.47l.05-.48.05-.48-.05-.29ZM68.37,21.81h-2.46l-.39.09-.39.09-.32.15-.32.15-.3.3-.3.3-.16.32c-.09.18-.19.45-.24.61l-.08.29.02.47.02.47.1.2c.06.11.16.27.23.35l.12.14.22.12c.12.06.34.14.48.18l.26.07.39-.02.39-.02.4-.13.4-.13.18-.12c.1-.07.2-.12.22-.12s.17-.13.33-.29l.29-.29.18-.3c.1-.17.18-.31.18-.33s.07-.2.15-.4c.08-.2.2-.58.27-.84.07-.26.16-.64.19-.85l.07-.39-.16-.06ZM85.72,18.48c-.08-.03-.35-.11-.61-.18l-.47-.13h-1.62s-.39.13-.39.13l-.39.13-.22.14c-.12.07-.32.24-.45.36-.13.12-.32.34-.43.49-.11.15-.27.4-.35.56s-.22.44-.3.63c-.08.18-.15.36-.15.39,0,.03-.06.24-.12.45l-.12.39-.08.57-.08.57v.64s-.01.64-.01.64l.07.32.07.32.15.29.15.29.2.17.2.16.24.1c.13.06.35.12.49.15l.25.05.37-.02.37-.02.39-.13.39-.12.27-.18c.15-.1.34-.25.44-.33.09-.08.23-.25.32-.37.08-.12.22-.35.29-.51.07-.16.17-.4.21-.54.04-.14.12-.42.17-.62.05-.2.16-.67.23-1.03.07-.36.19-1.02.27-1.45.08-.43.19-1.05.25-1.38.06-.32.12-.65.13-.72l.03-.13-.14-.05ZM85.72,18.48c-.08-.03-.35-.11-.61-.18l-.47-.13h-1.62s-.39.13-.39.13l-.39.13-.22.14c-.12.07-.32.24-.45.36-.13.12-.32.34-.43.49-.11.15-.27.4-.35.56s-.22.44-.3.63c-.08.18-.15.36-.15.39,0,.03-.06.24-.12.45l-.12.39-.08.57-.08.57v.64s-.01.64-.01.64l.07.32.07.32.15.29.15.29.2.17.2.16.24.1c.13.06.35.12.49.15l.25.05.37-.02.37-.02.39-.13.39-.12.27-.18c.15-.1.34-.25.44-.33.09-.08.23-.25.32-.37.08-.12.22-.35.29-.51.07-.16.17-.4.21-.54.04-.14.12-.42.17-.62.05-.2.16-.67.23-1.03.07-.36.19-1.02.27-1.45.08-.43.19-1.05.25-1.38.06-.32.12-.65.13-.72l.03-.13-.14-.05ZM68.37,21.81h-2.46l-.39.09-.39.09-.32.15-.32.15-.3.3-.3.3-.16.32c-.09.18-.19.45-.24.61l-.08.29.02.47.02.47.1.2c.06.11.16.27.23.35l.12.14.22.12c.12.06.34.14.48.18l.26.07.39-.02.39-.02.4-.13.4-.13.18-.12c.1-.07.2-.12.22-.12s.17-.13.33-.29l.29-.29.18-.3c.1-.17.18-.31.18-.33s.07-.2.15-.4c.08-.2.2-.58.27-.84.07-.26.16-.64.19-.85l.07-.39-.16-.06ZM44.39,19.31l-.04-.29-.07-.13c-.04-.07-.14-.2-.22-.29l-.15-.16-.27-.13-.28-.13-.38-.05-.38-.05-.49.03c-.27.02-.58.05-.69.08-.11.03-.34.12-.52.2l-.32.15-.33.32-.33.32-.15.29c-.08.16-.21.46-.28.65-.07.2-.13.37-.13.38s1.11.02,2.48.02h2.47l.05-.48.05-.48-.05-.29ZM34,19.72c-.05-.17-.13-.42-.2-.54l-.12-.23-.21-.22-.21-.21-.25-.12-.25-.12-.36-.08-.36-.08-.44.03-.44.03-.34.11-.34.11-.26.15c-.14.08-.39.25-.54.38l-.28.23-.13.68c-.07.37-.2,1.07-.28,1.54-.08.47-.21,1.16-.28,1.52l-.13.66-.03.42-.03.42.06.26c.03.15.11.38.17.51l.11.25.38.36.27.12.27.13.27.05.27.05.41-.03.41-.02.42-.14.42-.14.18-.13c.1-.08.26-.2.35-.28.09-.08.25-.26.35-.4.1-.14.27-.43.39-.64l.2-.39.17-.48c.09-.26.22-.73.29-1.03l.13-.55.03-.93.03-.93-.08-.32ZM34,19.72c-.05-.17-.13-.42-.2-.54l-.12-.23-.21-.22-.21-.21-.25-.12-.25-.12-.36-.08-.36-.08-.44.03-.44.03-.34.11-.34.11-.26.15c-.14.08-.39.25-.54.38l-.28.23-.13.68c-.07.37-.2,1.07-.28,1.54-.08.47-.21,1.16-.28,1.52l-.13.66-.03.42-.03.42.06.26c.03.15.11.38.17.51l.11.25.38.36.27.12.27.13.27.05.27.05.41-.03.41-.02.42-.14.42-.14.18-.13c.1-.08.26-.2.35-.28.09-.08.25-.26.35-.4.1-.14.27-.43.39-.64l.2-.39.17-.48c.09-.26.22-.73.29-1.03l.13-.55.03-.93.03-.93-.08-.32ZM44.39,19.31l-.04-.29-.07-.13c-.04-.07-.14-.2-.22-.29l-.15-.16-.27-.13-.28-.13-.38-.05-.38-.05-.49.03c-.27.02-.58.05-.69.08-.11.03-.34.12-.52.2l-.32.15-.33.32-.33.32-.15.29c-.08.16-.21.46-.28.65-.07.2-.13.37-.13.38s1.11.02,2.48.02h2.47l.05-.48.05-.48-.05-.29ZM68.37,21.81h-2.46l-.39.09-.39.09-.32.15-.32.15-.3.3-.3.3-.16.32c-.09.18-.19.45-.24.61l-.08.29.02.47.02.47.1.2c.06.11.16.27.23.35l.12.14.22.12c.12.06.34.14.48.18l.26.07.39-.02.39-.02.4-.13.4-.13.18-.12c.1-.07.2-.12.22-.12s.17-.13.33-.29l.29-.29.18-.3c.1-.17.18-.31.18-.33s.07-.2.15-.4c.08-.2.2-.58.27-.84.07-.26.16-.64.19-.85l.07-.39-.16-.06ZM85.72,18.48c-.08-.03-.35-.11-.61-.18l-.47-.13h-1.62s-.39.13-.39.13l-.39.13-.22.14c-.12.07-.32.24-.45.36-.13.12-.32.34-.43.49-.11.15-.27.4-.35.56s-.22.44-.3.63c-.08.18-.15.36-.15.39,0,.03-.06.24-.12.45l-.12.39-.08.57-.08.57v.64s-.01.64-.01.64l.07.32.07.32.15.29.15.29.2.17.2.16.24.1c.13.06.35.12.49.15l.25.05.37-.02.37-.02.39-.13.39-.12.27-.18c.15-.1.34-.25.44-.33.09-.08.23-.25.32-.37.08-.12.22-.35.29-.51.07-.16.17-.4.21-.54.04-.14.12-.42.17-.62.05-.2.16-.67.23-1.03.07-.36.19-1.02.27-1.45.08-.43.19-1.05.25-1.38.06-.32.12-.65.13-.72l.03-.13-.14-.05ZM85.72,18.48c-.08-.03-.35-.11-.61-.18l-.47-.13h-1.62s-.39.13-.39.13l-.39.13-.22.14c-.12.07-.32.24-.45.36-.13.12-.32.34-.43.49-.11.15-.27.4-.35.56s-.22.44-.3.63c-.08.18-.15.36-.15.39,0,.03-.06.24-.12.45l-.12.39-.08.57-.08.57v.64s-.01.64-.01.64l.07.32.07.32.15.29.15.29.2.17.2.16.24.1c.13.06.35.12.49.15l.25.05.37-.02.37-.02.39-.13.39-.12.27-.18c.15-.1.34-.25.44-.33.09-.08.23-.25.32-.37.08-.12.22-.35.29-.51.07-.16.17-.4.21-.54.04-.14.12-.42.17-.62.05-.2.16-.67.23-1.03.07-.36.19-1.02.27-1.45.08-.43.19-1.05.25-1.38.06-.32.12-.65.13-.72l.03-.13-.14-.05ZM68.37,21.81h-2.46l-.39.09-.39.09-.32.15-.32.15-.3.3-.3.3-.16.32c-.09.18-.19.45-.24.61l-.08.29.02.47.02.47.1.2c.06.11.16.27.23.35l.12.14.22.12c.12.06.34.14.48.18l.26.07.39-.02.39-.02.4-.13.4-.13.18-.12c.1-.07.2-.12.22-.12s.17-.13.33-.29l.29-.29.18-.3c.1-.17.18-.31.18-.33s.07-.2.15-.4c.08-.2.2-.58.27-.84.07-.26.16-.64.19-.85l.07-.39-.16-.06ZM44.39,19.31l-.04-.29-.07-.13c-.04-.07-.14-.2-.22-.29l-.15-.16-.27-.13-.28-.13-.38-.05-.38-.05-.49.03c-.27.02-.58.05-.69.08-.11.03-.34.12-.52.2l-.32.15-.33.32-.33.32-.15.29c-.08.16-.21.46-.28.65-.07.2-.13.37-.13.38s1.11.02,2.48.02h2.47l.05-.48.05-.48-.05-.29ZM34,19.72c-.05-.17-.13-.42-.2-.54l-.12-.23-.21-.22-.21-.21-.25-.12-.25-.12-.36-.08-.36-.08-.44.03-.44.03-.34.11-.34.11-.26.15c-.14.08-.39.25-.54.38l-.28.23-.13.68c-.07.37-.2,1.07-.28,1.54-.08.47-.21,1.16-.28,1.52l-.13.66-.03.42-.03.42.06.26c.03.15.11.38.17.51l.11.25.38.36.27.12.27.13.27.05.27.05.41-.03.41-.02.42-.14.42-.14.18-.13c.1-.08.26-.2.35-.28.09-.08.25-.26.35-.4.1-.14.27-.43.39-.64l.2-.39.17-.48c.09-.26.22-.73.29-1.03l.13-.55.03-.93.03-.93-.08-.32ZM34,19.72c-.05-.17-.13-.42-.2-.54l-.12-.23-.21-.22-.21-.21-.25-.12-.25-.12-.36-.08-.36-.08-.44.03-.44.03-.34.11-.34.11-.26.15c-.14.08-.39.25-.54.38l-.28.23-.13.68c-.07.37-.2,1.07-.28,1.54-.08.47-.21,1.16-.28,1.52l-.13.66-.03.42-.03.42.06.26c.03.15.11.38.17.51l.11.25.38.36.27.12.27.13.27.05.27.05.41-.03.41-.02.42-.14.42-.14.18-.13c.1-.08.26-.2.35-.28.09-.08.25-.26.35-.4.1-.14.27-.43.39-.64l.2-.39.17-.48c.09-.26.22-.73.29-1.03l.13-.55.03-.93.03-.93-.08-.32ZM44.39,19.31l-.04-.29-.07-.13c-.04-.07-.14-.2-.22-.29l-.15-.16-.27-.13-.28-.13-.38-.05-.38-.05-.49.03c-.27.02-.58.05-.69.08-.11.03-.34.12-.52.2l-.32.15-.33.32-.33.32-.15.29c-.08.16-.21.46-.28.65-.07.2-.13.37-.13.38s1.11.02,2.48.02h2.47l.05-.48.05-.48-.05-.29ZM68.37,21.81h-2.46l-.39.09-.39.09-.32.15-.32.15-.3.3-.3.3-.16.32c-.09.18-.19.45-.24.61l-.08.29.02.47.02.47.1.2c.06.11.16.27.23.35l.12.14.22.12c.12.06.34.14.48.18l.26.07.39-.02.39-.02.4-.13.4-.13.18-.12c.1-.07.2-.12.22-.12s.17-.13.33-.29l.29-.29.18-.3c.1-.17.18-.31.18-.33s.07-.2.15-.4c.08-.2.2-.58.27-.84.07-.26.16-.64.19-.85l.07-.39-.16-.06ZM85.72,18.48c-.08-.03-.35-.11-.61-.18l-.47-.13h-1.62s-.39.13-.39.13l-.39.13-.22.14c-.12.07-.32.24-.45.36-.13.12-.32.34-.43.49-.11.15-.27.4-.35.56s-.22.44-.3.63c-.08.18-.15.36-.15.39,0,.03-.06.24-.12.45l-.12.39-.08.57-.08.57v.64s-.01.64-.01.64l.07.32.07.32.15.29.15.29.2.17.2.16.24.1c.13.06.35.12.49.15l.25.05.37-.02.37-.02.39-.13.39-.12.27-.18c.15-.1.34-.25.44-.33.09-.08.23-.25.32-.37.08-.12.22-.35.29-.51.07-.16.17-.4.21-.54.04-.14.12-.42.17-.62.05-.2.16-.67.23-1.03.07-.36.19-1.02.27-1.45.08-.43.19-1.05.25-1.38.06-.32.12-.65.13-.72l.03-.13-.14-.05ZM85.72,18.48c-.08-.03-.35-.11-.61-.18l-.47-.13h-1.62s-.39.13-.39.13l-.39.13-.22.14c-.12.07-.32.24-.45.36-.13.12-.32.34-.43.49-.11.15-.27.4-.35.56s-.22.44-.3.63c-.08.18-.15.36-.15.39,0,.03-.06.24-.12.45l-.12.39-.08.57-.08.57v.64s-.01.64-.01.64l.07.32.07.32.15.29.15.29.2.17.2.16.24.1c.13.06.35.12.49.15l.25.05.37-.02.37-.02.39-.13.39-.12.27-.18c.15-.1.34-.25.44-.33.09-.08.23-.25.32-.37.08-.12.22-.35.29-.51.07-.16.17-.4.21-.54.04-.14.12-.42.17-.62.05-.2.16-.67.23-1.03.07-.36.19-1.02.27-1.45.08-.43.19-1.05.25-1.38.06-.32.12-.65.13-.72l.03-.13-.14-.05ZM68.37,21.81h-2.46l-.39.09-.39.09-.32.15-.32.15-.3.3-.3.3-.16.32c-.09.18-.19.45-.24.61l-.08.29.02.47.02.47.1.2c.06.11.16.27.23.35l.12.14.22.12c.12.06.34.14.48.18l.26.07.39-.02.39-.02.4-.13.4-.13.18-.12c.1-.07.2-.12.22-.12s.17-.13.33-.29l.29-.29.18-.3c.1-.17.18-.31.18-.33s.07-.2.15-.4c.08-.2.2-.58.27-.84.07-.26.16-.64.19-.85l.07-.39-.16-.06ZM44.39,19.31l-.04-.29-.07-.13c-.04-.07-.14-.2-.22-.29l-.15-.16-.27-.13-.28-.13-.38-.05-.38-.05-.49.03c-.27.02-.58.05-.69.08-.11.03-.34.12-.52.2l-.32.15-.33.32-.33.32-.15.29c-.08.16-.21.46-.28.65-.07.2-.13.37-.13.38s1.11.02,2.48.02h2.47l.05-.48.05-.48-.05-.29ZM34,19.72c-.05-.17-.13-.42-.2-.54l-.12-.23-.21-.22-.21-.21-.25-.12-.25-.12-.36-.08-.36-.08-.44.03-.44.03-.34.11-.34.11-.26.15c-.14.08-.39.25-.54.38l-.28.23-.13.68c-.07.37-.2,1.07-.28,1.54-.08.47-.21,1.16-.28,1.52l-.13.66-.03.42-.03.42.06.26c.03.15.11.38.17.51l.11.25.38.36.27.12.27.13.27.05.27.05.41-.03.41-.02.42-.14.42-.14.18-.13c.1-.08.26-.2.35-.28.09-.08.25-.26.35-.4.1-.14.27-.43.39-.64l.2-.39.17-.48c.09-.26.22-.73.29-1.03l.13-.55.03-.93.03-.93-.08-.32ZM56.61.02L15.96.03l-.59.08c-.33.04-.88.14-1.23.2-.35.07-.86.19-1.13.28-.27.08-.66.21-.86.29-.2.08-.48.2-.62.26-.13.06-.4.2-.59.31-.19.11-.45.27-.59.36-.13.09-.39.29-.56.43-.18.14-.46.4-.62.57-.17.17-.42.46-.55.64l-.25.33-.28.53c-.15.29-.33.67-.4.85-.07.18-.19.62-.28.98-.09.37-.23,1.01-.32,1.43-.08.42-.22,1.06-.29,1.43-.08.37-.2.95-.27,1.3-.07.35-.19.96-.28,1.35-.08.39-.21,1.03-.29,1.43-.08.39-.2.98-.27,1.3-.07.33-.17.81-.22,1.08-.06.27-.2.98-.32,1.57-.12.59-.31,1.51-.42,2.04-.11.53-.27,1.29-.35,1.7-.08.41-.18.89-.22,1.08-.03.19-.16.78-.27,1.3-.11.53-.23,1.13-.27,1.33-.04.2-.16.8-.27,1.33-.11.53-.23,1.13-.27,1.33-.04.2-.16.8-.27,1.33-.11.53-.23,1.12-.27,1.33-.04.2-.12.62-.19.93-.07.31-.18.85-.25,1.2s-.2.97-.28,1.38c-.08.41-.21,1.04-.29,1.4s-.2.96-.27,1.33c-.07.37-.2.98-.28,1.38-.08.39-.21,1.02-.29,1.4-.08.38-.2.98-.27,1.33-.07.35-.19.94-.27,1.32s-.14.72-.14.77v.1h40.62s40.62-.03,40.62-.03l.7-.08c.39-.05.92-.13,1.18-.18.26-.06.54-.11.63-.13.08-.02.36-.09.62-.17.26-.08.63-.2.81-.27.18-.07.54-.23.8-.36.25-.13.52-.26.59-.3.07-.04.31-.2.52-.35l.4-.28.41-.42c.23-.23.48-.5.57-.61.08-.11.25-.35.37-.53.12-.19.29-.47.37-.64.08-.16.23-.51.32-.77l.18-.47.15-.68c.08-.38.22-1.01.3-1.42.08-.41.2-1,.27-1.33.07-.33.19-.91.27-1.3.08-.39.21-1.03.29-1.42.08-.39.21-1,.28-1.35.07-.35.19-.95.27-1.33.08-.38.21-1.02.29-1.43.08-.41.2-.99.27-1.3.06-.31.19-.91.27-1.33.08-.42.22-1.07.3-1.45.08-.38.2-.95.26-1.28.07-.32.19-.93.28-1.35.08-.42.21-1.03.27-1.35.07-.33.18-.9.26-1.28.08-.38.21-1.02.29-1.43.08-.41.21-1.01.28-1.35.07-.34.19-.92.27-1.3.08-.38.21-1.02.29-1.43.08-.41.21-1.01.28-1.35.07-.34.19-.91.26-1.28.08-.37.2-.96.27-1.33.07-.37.2-.96.27-1.33.08-.37.21-1.01.29-1.43.09-.42.21-1.02.27-1.33.07-.31.19-.9.27-1.3.08-.4.22-1.04.3-1.41.08-.37.14-.72.14-.78v-.1l-40.65.02ZM24.15,14.21l.02-.42.11-.27.12-.27.29-.31.5-.23h.74l.17.11.17.11.1.16.1.16v.42s0,.42,0,.42l-.11.28-.11.28-.21.21-.21.21-.24.08-.24.08h-.6s-.21-.1-.21-.1l-.21-.09-.11-.21-.11-.21.02-.42ZM21.48,17.46c-.08.45-.21,1.15-.29,1.57-.08.42-.2,1.08-.27,1.47-.07.39-.19,1.12-.27,1.62-.08.5-.22,1.29-.29,1.75-.08.46-.19,1.1-.24,1.43-.06.32-.12.76-.15.96-.03.2-.08.51-.1.68l-.05.31h-2.4v-.06s.08-.49.17-1.02c.09-.53.23-1.24.29-1.57.06-.34.19-.99.27-1.45.08-.46.22-1.19.3-1.62.08-.43.17-.91.2-1.07l.06-.28-.07-.07h-6.42l-.03.03s-.08.33-.15.69c-.07.36-.18.99-.25,1.4-.07.4-.19,1.15-.28,1.65-.08.5-.21,1.23-.27,1.62-.07.39-.16.95-.2,1.24l-.09.53h-2.39v-.08s.06-.36.13-.7c.07-.34.15-.73.17-.87.02-.13.1-.51.16-.84.07-.32.19-.95.28-1.4.08-.45.21-1.09.27-1.43.06-.34.18-.99.27-1.45.08-.46.22-1.26.3-1.77.08-.51.2-1.28.27-1.7.07-.42.19-1.18.27-1.7.08-.51.17-1.08.2-1.25.03-.18.08-.51.13-.75l.08-.43h2.41l-.03.08s-.08.33-.13.64c-.05.31-.13.72-.17.92-.04.2-.1.51-.12.7-.03.19-.1.64-.17,1.01-.07.36-.17.87-.22,1.13-.05.26-.13.65-.17.88-.04.23-.07.42-.06.42,0,0,.68.03,1.5.04l1.49.03,1.78-.04,1.78-.04.08-.55c.05-.3.15-.95.23-1.43.08-.49.2-1.18.27-1.55.07-.36.16-.92.22-1.23.05-.31.11-.67.13-.8l.03-.23h2.43l-.08.36c-.05.2-.15.73-.24,1.19-.08.46-.21,1.15-.28,1.52-.07.38-.19,1.05-.27,1.5ZM24.81,22.37c-.07.39-.19,1.12-.27,1.62-.08.5-.22,1.32-.3,1.83-.08.5-.15,1-.15,1.09s-.01.21-.03.25l-.03.08h-2.11l.03-.11c.02-.06.07-.32.13-.58.05-.26.16-.81.24-1.23.08-.42.2-1.06.27-1.43.07-.37.19-1.01.27-1.43.08-.42.2-1.12.27-1.55.07-.43.19-1.2.28-1.7.08-.5.19-1.2.24-1.55l.09-.64h1.07s1.07-.03,1.07-.03l-.03.04s-.1.44-.2.92c-.1.48-.23,1.18-.3,1.54-.07.36-.19,1-.27,1.4-.08.41-.2,1.06-.26,1.45ZM36.24,21.05c-.03.29-.1.75-.16,1.03l-.1.51-.19.59c-.1.32-.28.81-.4,1.08-.12.27-.27.59-.35.7-.08.11-.14.22-.14.23,0,.01-.1.17-.23.33-.13.17-.38.45-.55.63l-.32.32-.34.22c-.19.12-.48.28-.64.36l-.29.13-.55.14-.55.14-.51.03-.51.03-.8-.1-.33-.13-.33-.13-.27-.28-.27-.28-.12-.23c-.07-.13-.14-.23-.15-.23-.02,0-.06.19-.09.43-.03.24-.11.77-.18,1.19-.07.42-.18,1.17-.26,1.67-.08.5-.18,1.14-.22,1.41-.04.28-.08.57-.08.65s-.01.18-.03.22l-.03.08h-2.11l.03-.11c.01-.06.09-.44.17-.85.08-.41.21-1.09.29-1.52.08-.43.22-1.16.3-1.62.08-.46.21-1.12.27-1.47.06-.35.18-1,.27-1.45.08-.45.21-1.2.29-1.67.08-.47.2-1.19.27-1.6.07-.41.19-1.14.27-1.62.08-.49.22-1.33.31-1.88l.16-1h1.8v.06s-.04.26-.09.49l-.09.43.13-.08c.07-.05.16-.12.2-.15.04-.04.18-.14.32-.23.14-.09.41-.23.59-.32l.33-.15.38-.1.38-.1.47-.05.46-.05.42.03.42.03.42.1.42.1.38.2.38.2.64.68.17.33.17.33.1.44.1.44.03.44.03.44-.06.52ZM46.37,19.49v.45s-.07.54-.07.54c-.04.29-.11.69-.15.89l-.08.35-2.73-.02-2.74-.02-.74.03-.74.03-.08.55-.08.55v1.23s.1.33.1.33l.1.33.15.27.15.26.19.18.19.18.23.12c.13.06.37.16.53.21l.29.09h.86s.86,0,.86,0l.54-.1.54-.11.52-.17c.28-.09.6-.21.7-.26l.18-.09.05.05-.12.59c-.07.32-.13.68-.15.81l-.03.22-.6.13c-.33.07-.84.17-1.14.21-.3.04-.78.1-1.08.13l-.54.05h-.54c-.3,0-.69-.03-.88-.06-.19-.02-.52-.09-.74-.14l-.4-.1-.29-.13c-.16-.07-.4-.21-.54-.32-.13-.1-.34-.28-.45-.4-.11-.12-.26-.31-.33-.44-.07-.12-.17-.34-.23-.49-.05-.15-.13-.41-.17-.59l-.08-.32v-.73s0-.73,0-.73l.08-.5c.04-.27.13-.72.19-.99.06-.27.17-.66.24-.86.07-.2.17-.48.23-.61.06-.14.18-.4.28-.59s.26-.48.37-.64c.11-.16.31-.41.45-.54.13-.13.35-.33.47-.43.12-.1.37-.26.54-.36.18-.1.49-.25.69-.33l.37-.15.59-.11.59-.11.49-.03.49-.03.53.05.53.05.43.1.43.1.25.13c.13.07.32.19.42.25s.24.2.32.3.21.27.28.39l.13.22.08.34.08.33v.45ZM51.99,18.36l-.37.18-.37.18-.3.28-.3.28-.23.33c-.12.18-.3.5-.4.71s-.18.41-.18.45-.03.16-.07.28c-.04.11-.16.64-.27,1.17-.11.53-.26,1.39-.34,1.9-.08.51-.2,1.23-.25,1.58-.06.36-.12.85-.13,1.09l-.03.44h-2.1v-.04s.03-.19.07-.38c.04-.19.14-.68.22-1.1.08-.42.22-1.11.3-1.52.08-.42.2-1.06.27-1.43.07-.36.19-1.06.27-1.55.08-.49.2-1.24.27-1.67.07-.43.18-1.13.25-1.54.07-.42.12-.81.12-.87v-.12h1.88l-.03.09s-.07.35-.13.68c-.06.32-.12.68-.14.79l-.04.2.07-.1c.04-.05.18-.25.32-.44.14-.19.36-.45.49-.58.13-.13.36-.31.5-.41.15-.09.38-.21.53-.27.14-.05.4-.12.58-.15l.32-.06.25.03c.13.02.41.08.6.14.2.06.36.12.36.14,0,.02-.06.3-.12.64-.07.33-.12.66-.12.72s-.01.12-.03.12-.15-.04-.31-.08l-.28-.08h-.57s-.57,0-.57,0ZM61.11,18.54l-.26-.1-.64-.13-.64-.13-.54-.03-.54-.03-.37.06c-.2.03-.51.1-.69.15l-.32.1-.25.15-.25.15-.23.24-.23.24-.19.33c-.1.18-.26.49-.35.7-.09.2-.18.44-.2.52-.02.08-.08.3-.14.49l-.1.34-.1.64-.1.64v1.05l.08.41.08.41.17.3.17.3.25.22.25.22.33.11.33.11.57.02.57.02.67-.13.67-.13.47-.18c.26-.1.5-.2.54-.23.03-.03.07-.04.08-.03s0,.15-.03.31c-.03.16-.09.5-.14.76-.05.25-.11.48-.13.5-.02.02-.21.08-.42.14-.21.06-.55.14-.76.18-.21.04-.66.11-1,.15l-.61.07h-.54c-.3,0-.67-.03-.83-.05-.16-.02-.46-.09-.66-.15l-.38-.1-.29-.15-.29-.15-.27-.27-.27-.27-.17-.27-.17-.27-.15-.37-.15-.37-.05-.36-.05-.36v-1.23l.05-.47.05-.47.13-.52c.07-.28.21-.75.31-1.03l.18-.52.23-.48c.13-.26.33-.62.44-.79l.21-.31.38-.37c.21-.2.44-.42.52-.47.08-.05.25-.17.39-.25.14-.08.39-.21.57-.28l.32-.13.49-.1.49-.1.66-.05.66-.05.94.05c.52.03,1.12.08,1.35.1.22.03.42.06.43.07.01.01-.01.21-.05.43-.04.23-.1.59-.13.82-.03.22-.07.41-.08.41,0,0-.13-.04-.27-.1ZM70.92,18.93v.62s-.14.71-.14.71c-.07.39-.19,1.07-.27,1.5-.08.43-.2,1.12-.27,1.52s-.18,1.15-.25,1.65l-.13.91-.03.7-.03.7h-1.81v-.31c0-.17.03-.53.07-.8.04-.27.06-.5.05-.5,0,0-.1.1-.21.24-.11.14-.3.37-.44.5-.13.13-.36.32-.51.42-.15.1-.39.24-.54.31l-.27.13-.42.11-.42.11-.66.02-.66.02-.29-.04c-.16-.03-.44-.09-.63-.14l-.34-.09-.29-.18-.29-.18-.17-.19c-.09-.11-.23-.3-.3-.44l-.13-.24-.07-.37-.07-.38v-.9l.08-.43.08-.43.16-.38c.09-.21.24-.49.33-.63.09-.13.3-.38.46-.54l.3-.29.38-.23c.21-.13.4-.23.42-.23.03,0,.14-.04.25-.1.11-.05.46-.17.78-.26l.58-.16h1.77s1.77-.01,1.77-.01l.08-.41.08-.41v-.38s0-.38,0-.38l-.16-.24-.16-.24-.29-.14-.28-.14-.43-.08-.43-.08-.66.03-.66.03-.74.13c-.41.07-.95.18-1.2.25-.25.07-.47.12-.48.11,0,0,.05-.26.13-.55.08-.3.17-.67.2-.82l.06-.28h.4s.4,0,.4,0l.59-.07c.32-.04.96-.09,1.41-.12l.82-.05.64.05.64.05.92.21.31.16.31.16.19.18.19.18.14.28.14.28v.62ZM76.87,18.37l-.28.14c-.16.08-.41.23-.58.36l-.29.22-.27.36-.27.35-.2.43c-.11.23-.2.46-.2.49,0,.03-.03.16-.08.28s-.14.53-.23.91c-.08.38-.18.88-.21,1.11-.04.23-.12.76-.19,1.18-.07.42-.18,1.13-.25,1.58l-.12.82v.66h-2.15l.09-.45c.05-.25.16-.79.24-1.19.08-.4.21-1.08.29-1.5.08-.42.2-1.06.27-1.42.07-.37.19-1.06.27-1.55.08-.49.21-1.29.29-1.79.08-.5.19-1.21.25-1.58.05-.37.1-.68.1-.7v-.03h1.82v.11c0,.06-.07.43-.14.82s-.13.72-.13.73c0,0,.1-.11.2-.27l.19-.28.35-.37.35-.37.27-.16.27-.16.36-.13.36-.13h.89s.25.08.25.08c.13.04.3.1.38.13l.13.05-.12.56c-.06.31-.12.63-.12.71v.16s-.04.03-.04.03l-.04.03-.24-.08-.24-.08h-.61s-.61,0-.61,0ZM88.9,12.63s-.05.29-.12.6c-.07.31-.19.92-.27,1.35-.08.43-.21,1.1-.28,1.47-.07.38-.19,1.03-.27,1.45-.08.42-.21,1.13-.29,1.57-.08.45-.2,1.13-.27,1.52-.07.39-.17.98-.23,1.3-.06.33-.16.94-.22,1.38-.07.43-.18,1.35-.27,2.04l-.15,1.25v.66h-1.93l.03-.33c.02-.18.05-.44.08-.58.02-.13.05-.36.07-.49l.03-.25-.03.07s-.15.23-.29.43l-.27.36-.25.22-.25.22-.29.15c-.16.08-.41.18-.54.22-.14.04-.44.1-.69.14l-.44.07h-.47c-.26,0-.6-.03-.77-.05-.17-.02-.44-.08-.61-.13-.17-.05-.44-.15-.61-.23l-.29-.15-.22-.18-.22-.18-.19-.26-.19-.26-.1-.26c-.06-.14-.13-.36-.17-.48l-.07-.22-.06-.62-.06-.61.07-.76.07-.76.15-.59c.08-.32.21-.74.28-.93.07-.19.25-.59.4-.9l.27-.56.23-.33c.13-.18.36-.47.52-.64l.3-.32.34-.25.34-.25.93-.46.49-.12.49-.13.54-.05.54-.05.64.05.64.05.47.12c.26.07.5.13.55.15l.08.04.03-.16c.02-.09.09-.56.17-1.05.08-.49.21-1.31.29-1.82.08-.51.16-1.07.18-1.24l.03-.31h2.1v.04ZM85.11,18.3l-.47-.13h-1.62s-.39.13-.39.13l-.39.13-.22.14c-.12.07-.32.24-.45.36-.13.12-.32.34-.43.49-.11.15-.27.4-.35.56s-.22.44-.3.63c-.08.18-.15.36-.15.39,0,.03-.06.24-.12.45l-.12.39-.08.57-.08.57v.64s-.01.64-.01.64l.07.32.07.32.15.29.15.29.2.17.2.16.24.1c.13.06.35.12.49.15l.25.05.37-.02.37-.02.39-.13.39-.12.27-.18c.15-.1.34-.25.44-.33.09-.08.23-.25.32-.37.08-.12.22-.35.29-.51.07-.16.17-.4.21-.54.04-.14.12-.42.17-.62.05-.2.16-.67.23-1.03.07-.36.19-1.02.27-1.45.08-.43.19-1.05.25-1.38.06-.32.12-.65.13-.72l.03-.13-.14-.05c-.08-.03-.35-.11-.61-.18ZM65.91,21.81l-.39.09-.39.09-.32.15-.32.15-.3.3-.3.3-.16.32c-.09.18-.19.45-.24.61l-.08.29.02.47.02.47.1.2c.06.11.16.27.23.35l.12.14.22.12c.12.06.34.14.48.18l.26.07.39-.02.39-.02.4-.13.4-.13.18-.12c.1-.07.2-.12.22-.12s.17-.13.33-.29l.29-.29.18-.3c.1-.17.18-.31.18-.33s.07-.2.15-.4c.08-.2.2-.58.27-.84.07-.26.16-.64.19-.85l.07-.39-.16-.06h-2.46ZM44.35,19.02l-.07-.13c-.04-.07-.14-.2-.22-.29l-.15-.16-.27-.13-.28-.13-.38-.05-.38-.05-.49.03c-.27.02-.58.05-.69.08-.11.03-.34.12-.52.2l-.32.15-.33.32-.33.32-.15.29c-.08.16-.21.46-.28.65-.07.2-.13.37-.13.38s1.11.02,2.48.02h2.47l.05-.48.05-.48-.05-.29-.04-.29ZM33.8,19.18l-.12-.23-.21-.22-.21-.21-.25-.12-.25-.12-.36-.08-.36-.08-.44.03-.44.03-.34.11-.34.11-.26.15c-.14.08-.39.25-.54.38l-.28.23-.13.68c-.07.37-.2,1.07-.28,1.54-.08.47-.21,1.16-.28,1.52l-.13.66-.03.42-.03.42.06.26c.03.15.11.38.17.51l.11.25.38.36.27.12.27.13.27.05.27.05.41-.03.41-.02.42-.14.42-.14.18-.13c.1-.08.26-.2.35-.28.09-.08.25-.26.35-.4.1-.14.27-.43.39-.64l.2-.39.17-.48c.09-.26.22-.73.29-1.03l.13-.55.03-.93.03-.93-.08-.32c-.05-.17-.13-.42-.2-.54ZM34,19.72c-.05-.17-.13-.42-.2-.54l-.12-.23-.21-.22-.21-.21-.25-.12-.25-.12-.36-.08-.36-.08-.44.03-.44.03-.34.11-.34.11-.26.15c-.14.08-.39.25-.54.38l-.28.23-.13.68c-.07.37-.2,1.07-.28,1.54-.08.47-.21,1.16-.28,1.52l-.13.66-.03.42-.03.42.06.26c.03.15.11.38.17.51l.11.25.38.36.27.12.27.13.27.05.27.05.41-.03.41-.02.42-.14.42-.14.18-.13c.1-.08.26-.2.35-.28.09-.08.25-.26.35-.4.1-.14.27-.43.39-.64l.2-.39.17-.48c.09-.26.22-.73.29-1.03l.13-.55.03-.93.03-.93-.08-.32ZM44.39,19.31l-.04-.29-.07-.13c-.04-.07-.14-.2-.22-.29l-.15-.16-.27-.13-.28-.13-.38-.05-.38-.05-.49.03c-.27.02-.58.05-.69.08-.11.03-.34.12-.52.2l-.32.15-.33.32-.33.32-.15.29c-.08.16-.21.46-.28.65-.07.2-.13.37-.13.38s1.11.02,2.48.02h2.47l.05-.48.05-.48-.05-.29ZM68.37,21.81h-2.46l-.39.09-.39.09-.32.15-.32.15-.3.3-.3.3-.16.32c-.09.18-.19.45-.24.61l-.08.29.02.47.02.47.1.2c.06.11.16.27.23.35l.12.14.22.12c.12.06.34.14.48.18l.26.07.39-.02.39-.02.4-.13.4-.13.18-.12c.1-.07.2-.12.22-.12s.17-.13.33-.29l.29-.29.18-.3c.1-.17.18-.31.18-.33s.07-.2.15-.4c.08-.2.2-.58.27-.84.07-.26.16-.64.19-.85l.07-.39-.16-.06ZM85.72,18.48c-.08-.03-.35-.11-.61-.18l-.47-.13h-1.62s-.39.13-.39.13l-.39.13-.22.14c-.12.07-.32.24-.45.36-.13.12-.32.34-.43.49-.11.15-.27.4-.35.56s-.22.44-.3.63c-.08.18-.15.36-.15.39,0,.03-.06.24-.12.45l-.12.39-.08.57-.08.57v.64s-.01.64-.01.64l.07.32.07.32.15.29.15.29.2.17.2.16.24.1c.13.06.35.12.49.15l.25.05.37-.02.37-.02.39-.13.39-.12.27-.18c.15-.1.34-.25.44-.33.09-.08.23-.25.32-.37.08-.12.22-.35.29-.51.07-.16.17-.4.21-.54.04-.14.12-.42.17-.62.05-.2.16-.67.23-1.03.07-.36.19-1.02.27-1.45.08-.43.19-1.05.25-1.38.06-.32.12-.65.13-.72l.03-.13-.14-.05ZM85.72,18.48c-.08-.03-.35-.11-.61-.18l-.47-.13h-1.62s-.39.13-.39.13l-.39.13-.22.14c-.12.07-.32.24-.45.36-.13.12-.32.34-.43.49-.11.15-.27.4-.35.56s-.22.44-.3.63c-.08.18-.15.36-.15.39,0,.03-.06.24-.12.45l-.12.39-.08.57-.08.57v.64s-.01.64-.01.64l.07.32.07.32.15.29.15.29.2.17.2.16.24.1c.13.06.35.12.49.15l.25.05.37-.02.37-.02.39-.13.39-.12.27-.18c.15-.1.34-.25.44-.33.09-.08.23-.25.32-.37.08-.12.22-.35.29-.51.07-.16.17-.4.21-.54.04-.14.12-.42.17-.62.05-.2.16-.67.23-1.03.07-.36.19-1.02.27-1.45.08-.43.19-1.05.25-1.38.06-.32.12-.65.13-.72l.03-.13-.14-.05ZM68.37,21.81h-2.46l-.39.09-.39.09-.32.15-.32.15-.3.3-.3.3-.16.32c-.09.18-.19.45-.24.61l-.08.29.02.47.02.47.1.2c.06.11.16.27.23.35l.12.14.22.12c.12.06.34.14.48.18l.26.07.39-.02.39-.02.4-.13.4-.13.18-.12c.1-.07.2-.12.22-.12s.17-.13.33-.29l.29-.29.18-.3c.1-.17.18-.31.18-.33s.07-.2.15-.4c.08-.2.2-.58.27-.84.07-.26.16-.64.19-.85l.07-.39-.16-.06ZM44.39,19.31l-.04-.29-.07-.13c-.04-.07-.14-.2-.22-.29l-.15-.16-.27-.13-.28-.13-.38-.05-.38-.05-.49.03c-.27.02-.58.05-.69.08-.11.03-.34.12-.52.2l-.32.15-.33.32-.33.32-.15.29c-.08.16-.21.46-.28.65-.07.2-.13.37-.13.38s1.11.02,2.48.02h2.47l.05-.48.05-.48-.05-.29ZM34,19.72c-.05-.17-.13-.42-.2-.54l-.12-.23-.21-.22-.21-.21-.25-.12-.25-.12-.36-.08-.36-.08-.44.03-.44.03-.34.11-.34.11-.26.15c-.14.08-.39.25-.54.38l-.28.23-.13.68c-.07.37-.2,1.07-.28,1.54-.08.47-.21,1.16-.28,1.52l-.13.66-.03.42-.03.42.06.26c.03.15.11.38.17.51l.11.25.38.36.27.12.27.13.27.05.27.05.41-.03.41-.02.42-.14.42-.14.18-.13c.1-.08.26-.2.35-.28.09-.08.25-.26.35-.4.1-.14.27-.43.39-.64l.2-.39.17-.48c.09-.26.22-.73.29-1.03l.13-.55.03-.93.03-.93-.08-.32ZM34,19.72c-.05-.17-.13-.42-.2-.54l-.12-.23-.21-.22-.21-.21-.25-.12-.25-.12-.36-.08-.36-.08-.44.03-.44.03-.34.11-.34.11-.26.15c-.14.08-.39.25-.54.38l-.28.23-.13.68c-.07.37-.2,1.07-.28,1.54-.08.47-.21,1.16-.28,1.52l-.13.66-.03.42-.03.42.06.26c.03.15.11.38.17.51l.11.25.38.36.27.12.27.13.27.05.27.05.41-.03.41-.02.42-.14.42-.14.18-.13c.1-.08.26-.2.35-.28.09-.08.25-.26.35-.4.1-.14.27-.43.39-.64l.2-.39.17-.48c.09-.26.22-.73.29-1.03l.13-.55.03-.93.03-.93-.08-.32ZM44.39,19.31l-.04-.29-.07-.13c-.04-.07-.14-.2-.22-.29l-.15-.16-.27-.13-.28-.13-.38-.05-.38-.05-.49.03c-.27.02-.58.05-.69.08-.11.03-.34.12-.52.2l-.32.15-.33.32-.33.32-.15.29c-.08.16-.21.46-.28.65-.07.2-.13.37-.13.38s1.11.02,2.48.02h2.47l.05-.48.05-.48-.05-.29ZM68.37,21.81h-2.46l-.39.09-.39.09-.32.15-.32.15-.3.3-.3.3-.16.32c-.09.18-.19.45-.24.61l-.08.29.02.47.02.47.1.2c.06.11.16.27.23.35l.12.14.22.12c.12.06.34.14.48.18l.26.07.39-.02.39-.02.4-.13.4-.13.18-.12c.1-.07.2-.12.22-.12s.17-.13.33-.29l.29-.29.18-.3c.1-.17.18-.31.18-.33s.07-.2.15-.4c.08-.2.2-.58.27-.84.07-.26.16-.64.19-.85l.07-.39-.16-.06ZM85.72,18.48c-.08-.03-.35-.11-.61-.18l-.47-.13h-1.62s-.39.13-.39.13l-.39.13-.22.14c-.12.07-.32.24-.45.36-.13.12-.32.34-.43.49-.11.15-.27.4-.35.56s-.22.44-.3.63c-.08.18-.15.36-.15.39,0,.03-.06.24-.12.45l-.12.39-.08.57-.08.57v.64s-.01.64-.01.64l.07.32.07.32.15.29.15.29.2.17.2.16.24.1c.13.06.35.12.49.15l.25.05.37-.02.37-.02.39-.13.39-.12.27-.18c.15-.1.34-.25.44-.33.09-.08.23-.25.32-.37.08-.12.22-.35.29-.51.07-.16.17-.4.21-.54.04-.14.12-.42.17-.62.05-.2.16-.67.23-1.03.07-.36.19-1.02.27-1.45.08-.43.19-1.05.25-1.38.06-.32.12-.65.13-.72l.03-.13-.14-.05ZM85.72,18.48c-.08-.03-.35-.11-.61-.18l-.47-.13h-1.62s-.39.13-.39.13l-.39.13-.22.14c-.12.07-.32.24-.45.36-.13.12-.32.34-.43.49-.11.15-.27.4-.35.56s-.22.44-.3.63c-.08.18-.15.36-.15.39,0,.03-.06.24-.12.45l-.12.39-.08.57-.08.57v.64s-.01.64-.01.64l.07.32.07.32.15.29.15.29.2.17.2.16.24.1c.13.06.35.12.49.15l.25.05.37-.02.37-.02.39-.13.39-.12.27-.18c.15-.1.34-.25.44-.33.09-.08.23-.25.32-.37.08-.12.22-.35.29-.51.07-.16.17-.4.21-.54.04-.14.12-.42.17-.62.05-.2.16-.67.23-1.03.07-.36.19-1.02.27-1.45.08-.43.19-1.05.25-1.38.06-.32.12-.65.13-.72l.03-.13-.14-.05ZM68.37,21.81h-2.46l-.39.09-.39.09-.32.15-.32.15-.3.3-.3.3-.16.32c-.09.18-.19.45-.24.61l-.08.29.02.47.02.47.1.2c.06.11.16.27.23.35l.12.14.22.12c.12.06.34.14.48.18l.26.07.39-.02.39-.02.4-.13.4-.13.18-.12c.1-.07.2-.12.22-.12s.17-.13.33-.29l.29-.29.18-.3c.1-.17.18-.31.18-.33s.07-.2.15-.4c.08-.2.2-.58.27-.84.07-.26.16-.64.19-.85l.07-.39-.16-.06ZM44.39,19.31l-.04-.29-.07-.13c-.04-.07-.14-.2-.22-.29l-.15-.16-.27-.13-.28-.13-.38-.05-.38-.05-.49.03c-.27.02-.58.05-.69.08-.11.03-.34.12-.52.2l-.32.15-.33.32-.33.32-.15.29c-.08.16-.21.46-.28.65-.07.2-.13.37-.13.38s1.11.02,2.48.02h2.47l.05-.48.05-.48-.05-.29ZM34,19.72c-.05-.17-.13-.42-.2-.54l-.12-.23-.21-.22-.21-.21-.25-.12-.25-.12-.36-.08-.36-.08-.44.03-.44.03-.34.11-.34.11-.26.15c-.14.08-.39.25-.54.38l-.28.23-.13.68c-.07.37-.2,1.07-.28,1.54-.08.47-.21,1.16-.28,1.52l-.13.66-.03.42-.03.42.06.26c.03.15.11.38.17.51l.11.25.38.36.27.12.27.13.27.05.27.05.41-.03.41-.02.42-.14.42-.14.18-.13c.1-.08.26-.2.35-.28.09-.08.25-.26.35-.4.1-.14.27-.43.39-.64l.2-.39.17-.48c.09-.26.22-.73.29-1.03l.13-.55.03-.93.03-.93-.08-.32ZM34,19.72c-.05-.17-.13-.42-.2-.54l-.12-.23-.21-.22-.21-.21-.25-.12-.25-.12-.36-.08-.36-.08-.44.03-.44.03-.34.11-.34.11-.26.15c-.14.08-.39.25-.54.38l-.28.23-.13.68c-.07.37-.2,1.07-.28,1.54-.08.47-.21,1.16-.28,1.52l-.13.66-.03.42-.03.42.06.26c.03.15.11.38.17.51l.11.25.38.36.27.12.27.13.27.05.27.05.41-.03.41-.02.42-.14.42-.14.18-.13c.1-.08.26-.2.35-.28.09-.08.25-.26.35-.4.1-.14.27-.43.39-.64l.2-.39.17-.48c.09-.26.22-.73.29-1.03l.13-.55.03-.93.03-.93-.08-.32ZM44.39,19.31l-.04-.29-.07-.13c-.04-.07-.14-.2-.22-.29l-.15-.16-.27-.13-.28-.13-.38-.05-.38-.05-.49.03c-.27.02-.58.05-.69.08-.11.03-.34.12-.52.2l-.32.15-.33.32-.33.32-.15.29c-.08.16-.21.46-.28.65-.07.2-.13.37-.13.38s1.11.02,2.48.02h2.47l.05-.48.05-.48-.05-.29ZM68.37,21.81h-2.46l-.39.09-.39.09-.32.15-.32.15-.3.3-.3.3-.16.32c-.09.18-.19.45-.24.61l-.08.29.02.47.02.47.1.2c.06.11.16.27.23.35l.12.14.22.12c.12.06.34.14.48.18l.26.07.39-.02.39-.02.4-.13.4-.13.18-.12c.1-.07.2-.12.22-.12s.17-.13.33-.29l.29-.29.18-.3c.1-.17.18-.31.18-.33s.07-.2.15-.4c.08-.2.2-.58.27-.84.07-.26.16-.64.19-.85l.07-.39-.16-.06ZM85.72,18.48c-.08-.03-.35-.11-.61-.18l-.47-.13h-1.62s-.39.13-.39.13l-.39.13-.22.14c-.12.07-.32.24-.45.36-.13.12-.32.34-.43.49-.11.15-.27.4-.35.56s-.22.44-.3.63c-.08.18-.15.36-.15.39,0,.03-.06.24-.12.45l-.12.39-.08.57-.08.57v.64s-.01.64-.01.64l.07.32.07.32.15.29.15.29.2.17.2.16.24.1c.13.06.35.12.49.15l.25.05.37-.02.37-.02.39-.13.39-.12.27-.18c.15-.1.34-.25.44-.33.09-.08.23-.25.32-.37.08-.12.22-.35.29-.51.07-.16.17-.4.21-.54.04-.14.12-.42.17-.62.05-.2.16-.67.23-1.03.07-.36.19-1.02.27-1.45.08-.43.19-1.05.25-1.38.06-.32.12-.65.13-.72l.03-.13-.14-.05ZM85.72,18.48c-.08-.03-.35-.11-.61-.18l-.47-.13h-1.62s-.39.13-.39.13l-.39.13-.22.14c-.12.07-.32.24-.45.36-.13.12-.32.34-.43.49-.11.15-.27.4-.35.56s-.22.44-.3.63c-.08.18-.15.36-.15.39,0,.03-.06.24-.12.45l-.12.39-.08.57-.08.57v.64s-.01.64-.01.64l.07.32.07.32.15.29.15.29.2.17.2.16.24.1c.13.06.35.12.49.15l.25.05.37-.02.37-.02.39-.13.39-.12.27-.18c.15-.1.34-.25.44-.33.09-.08.23-.25.32-.37.08-.12.22-.35.29-.51.07-.16.17-.4.21-.54.04-.14.12-.42.17-.62.05-.2.16-.67.23-1.03.07-.36.19-1.02.27-1.45.08-.43.19-1.05.25-1.38.06-.32.12-.65.13-.72l.03-.13-.14-.05ZM68.37,21.81h-2.46l-.39.09-.39.09-.32.15-.32.15-.3.3-.3.3-.16.32c-.09.18-.19.45-.24.61l-.08.29.02.47.02.47.1.2c.06.11.16.27.23.35l.12.14.22.12c.12.06.34.14.48.18l.26.07.39-.02.39-.02.4-.13.4-.13.18-.12c.1-.07.2-.12.22-.12s.17-.13.33-.29l.29-.29.18-.3c.1-.17.18-.31.18-.33s.07-.2.15-.4c.08-.2.2-.58.27-.84.07-.26.16-.64.19-.85l.07-.39-.16-.06ZM44.39,19.31l-.04-.29-.07-.13c-.04-.07-.14-.2-.22-.29l-.15-.16-.27-.13-.28-.13-.38-.05-.38-.05-.49.03c-.27.02-.58.05-.69.08-.11.03-.34.12-.52.2l-.32.15-.33.32-.33.32-.15.29c-.08.16-.21.46-.28.65-.07.2-.13.37-.13.38s1.11.02,2.48.02h2.47l.05-.48.05-.48-.05-.29ZM34,19.72c-.05-.17-.13-.42-.2-.54l-.12-.23-.21-.22-.21-.21-.25-.12-.25-.12-.36-.08-.36-.08-.44.03-.44.03-.34.11-.34.11-.26.15c-.14.08-.39.25-.54.38l-.28.23-.13.68c-.07.37-.2,1.07-.28,1.54-.08.47-.21,1.16-.28,1.52l-.13.66-.03.42-.03.42.06.26c.03.15.11.38.17.51l.11.25.38.36.27.12.27.13.27.05.27.05.41-.03.41-.02.42-.14.42-.14.18-.13c.1-.08.26-.2.35-.28.09-.08.25-.26.35-.4.1-.14.27-.43.39-.64l.2-.39.17-.48c.09-.26.22-.73.29-1.03l.13-.55.03-.93.03-.93-.08-.32ZM34,19.72c-.05-.17-.13-.42-.2-.54l-.12-.23-.21-.22-.21-.21-.25-.12-.25-.12-.36-.08-.36-.08-.44.03-.44.03-.34.11-.34.11-.26.15c-.14.08-.39.25-.54.38l-.28.23-.13.68c-.07.37-.2,1.07-.28,1.54-.08.47-.21,1.16-.28,1.52l-.13.66-.03.42-.03.42.06.26c.03.15.11.38.17.51l.11.25.38.36.27.12.27.13.27.05.27.05.41-.03.41-.02.42-.14.42-.14.18-.13c.1-.08.26-.2.35-.28.09-.08.25-.26.35-.4.1-.14.27-.43.39-.64l.2-.39.17-.48c.09-.26.22-.73.29-1.03l.13-.55.03-.93.03-.93-.08-.32ZM44.39,19.31l-.04-.29-.07-.13c-.04-.07-.14-.2-.22-.29l-.15-.16-.27-.13-.28-.13-.38-.05-.38-.05-.49.03c-.27.02-.58.05-.69.08-.11.03-.34.12-.52.2l-.32.15-.33.32-.33.32-.15.29c-.08.16-.21.46-.28.65-.07.2-.13.37-.13.38s1.11.02,2.48.02h2.47l.05-.48.05-.48-.05-.29ZM68.37,21.81h-2.46l-.39.09-.39.09-.32.15-.32.15-.3.3-.3.3-.16.32c-.09.18-.19.45-.24.61l-.08.29.02.47.02.47.1.2c.06.11.16.27.23.35l.12.14.22.12c.12.06.34.14.48.18l.26.07.39-.02.39-.02.4-.13.4-.13.18-.12c.1-.07.2-.12.22-.12s.17-.13.33-.29l.29-.29.18-.3c.1-.17.18-.31.18-.33s.07-.2.15-.4c.08-.2.2-.58.27-.84.07-.26.16-.64.19-.85l.07-.39-.16-.06ZM85.72,18.48c-.08-.03-.35-.11-.61-.18l-.47-.13h-1.62s-.39.13-.39.13l-.39.13-.22.14c-.12.07-.32.24-.45.36-.13.12-.32.34-.43.49-.11.15-.27.4-.35.56s-.22.44-.3.63c-.08.18-.15.36-.15.39,0,.03-.06.24-.12.45l-.12.39-.08.57-.08.57v.64s-.01.64-.01.64l.07.32.07.32.15.29.15.29.2.17.2.16.24.1c.13.06.35.12.49.15l.25.05.37-.02.37-.02.39-.13.39-.12.27-.18c.15-.1.34-.25.44-.33.09-.08.23-.25.32-.37.08-.12.22-.35.29-.51.07-.16.17-.4.21-.54.04-.14.12-.42.17-.62.05-.2.16-.67.23-1.03.07-.36.19-1.02.27-1.45.08-.43.19-1.05.25-1.38.06-.32.12-.65.13-.72l.03-.13-.14-.05ZM85.72,18.48c-.08-.03-.35-.11-.61-.18l-.47-.13h-1.62s-.39.13-.39.13l-.39.13-.22.14c-.12.07-.32.24-.45.36-.13.12-.32.34-.43.49-.11.15-.27.4-.35.56s-.22.44-.3.63c-.08.18-.15.36-.15.39,0,.03-.06.24-.12.45l-.12.39-.08.57-.08.57v.64s-.01.64-.01.64l.07.32.07.32.15.29.15.29.2.17.2.16.24.1c.13.06.35.12.49.15l.25.05.37-.02.37-.02.39-.13.39-.12.27-.18c.15-.1.34-.25.44-.33.09-.08.23-.25.32-.37.08-.12.22-.35.29-.51.07-.16.17-.4.21-.54.04-.14.12-.42.17-.62.05-.2.16-.67.23-1.03.07-.36.19-1.02.27-1.45.08-.43.19-1.05.25-1.38.06-.32.12-.65.13-.72l.03-.13-.14-.05ZM68.37,21.81h-2.46l-.39.09-.39.09-.32.15-.32.15-.3.3-.3.3-.16.32c-.09.18-.19.45-.24.61l-.08.29.02.47.02.47.1.2c.06.11.16.27.23.35l.12.14.22.12c.12.06.34.14.48.18l.26.07.39-.02.39-.02.4-.13.4-.13.18-.12c.1-.07.2-.12.22-.12s.17-.13.33-.29l.29-.29.18-.3c.1-.17.18-.31.18-.33s.07-.2.15-.4c.08-.2.2-.58.27-.84.07-.26.16-.64.19-.85l.07-.39-.16-.06ZM44.39,19.31l-.04-.29-.07-.13c-.04-.07-.14-.2-.22-.29l-.15-.16-.27-.13-.28-.13-.38-.05-.38-.05-.49.03c-.27.02-.58.05-.69.08-.11.03-.34.12-.52.2l-.32.15-.33.32-.33.32-.15.29c-.08.16-.21.46-.28.65-.07.2-.13.37-.13.38s1.11.02,2.48.02h2.47l.05-.48.05-.48-.05-.29ZM34,19.72c-.05-.17-.13-.42-.2-.54l-.12-.23-.21-.22-.21-.21-.25-.12-.25-.12-.36-.08-.36-.08-.44.03-.44.03-.34.11-.34.11-.26.15c-.14.08-.39.25-.54.38l-.28.23-.13.68c-.07.37-.2,1.07-.28,1.54-.08.47-.21,1.16-.28,1.52l-.13.66-.03.42-.03.42.06.26c.03.15.11.38.17.51l.11.25.38.36.27.12.27.13.27.05.27.05.41-.03.41-.02.42-.14.42-.14.18-.13c.1-.08.26-.2.35-.28.09-.08.25-.26.35-.4.1-.14.27-.43.39-.64l.2-.39.17-.48c.09-.26.22-.73.29-1.03l.13-.55.03-.93.03-.93-.08-.32ZM34,19.72c-.05-.17-.13-.42-.2-.54l-.12-.23-.21-.22-.21-.21-.25-.12-.25-.12-.36-.08-.36-.08-.44.03-.44.03-.34.11-.34.11-.26.15c-.14.08-.39.25-.54.38l-.28.23-.13.68c-.07.37-.2,1.07-.28,1.54-.08.47-.21,1.16-.28,1.52l-.13.66-.03.42-.03.42.06.26c.03.15.11.38.17.51l.11.25.38.36.27.12.27.13.27.05.27.05.41-.03.41-.02.42-.14.42-.14.18-.13c.1-.08.26-.2.35-.28.09-.08.25-.26.35-.4.1-.14.27-.43.39-.64l.2-.39.17-.48c.09-.26.22-.73.29-1.03l.13-.55.03-.93.03-.93-.08-.32ZM34,19.72c-.05-.17-.13-.42-.2-.54l-.12-.23-.21-.22-.21-.21-.25-.12-.25-.12-.36-.08-.36-.08-.44.03-.44.03-.34.11-.34.11-.26.15c-.14.08-.39.25-.54.38l-.28.23-.13.68c-.07.37-.2,1.07-.28,1.54-.08.47-.21,1.16-.28,1.52l-.13.66-.03.42-.03.42.06.26c.03.15.11.38.17.51l.11.25.38.36.27.12.27.13.27.05.27.05.41-.03.41-.02.42-.14.42-.14.18-.13c.1-.08.26-.2.35-.28.09-.08.25-.26.35-.4.1-.14.27-.43.39-.64l.2-.39.17-.48c.09-.26.22-.73.29-1.03l.13-.55.03-.93.03-.93-.08-.32ZM44.39,19.31l-.04-.29-.07-.13c-.04-.07-.14-.2-.22-.29l-.15-.16-.27-.13-.28-.13-.38-.05-.38-.05-.49.03c-.27.02-.58.05-.69.08-.11.03-.34.12-.52.2l-.32.15-.33.32-.33.32-.15.29c-.08.16-.21.46-.28.65-.07.2-.13.37-.13.38s1.11.02,2.48.02h2.47l.05-.48.05-.48-.05-.29ZM44.39,19.31l-.04-.29-.07-.13c-.04-.07-.14-.2-.22-.29l-.15-.16-.27-.13-.28-.13-.38-.05-.38-.05-.49.03c-.27.02-.58.05-.69.08-.11.03-.34.12-.52.2l-.32.15-.33.32-.33.32-.15.29c-.08.16-.21.46-.28.65-.07.2-.13.37-.13.38s1.11.02,2.48.02h2.47l.05-.48.05-.48-.05-.29ZM68.37,21.81h-2.46l-.39.09-.39.09-.32.15-.32.15-.3.3-.3.3-.16.32c-.09.18-.19.45-.24.61l-.08.29.02.47.02.47.1.2c.06.11.16.27.23.35l.12.14.22.12c.12.06.34.14.48.18l.26.07.39-.02.39-.02.4-.13.4-.13.18-.12c.1-.07.2-.12.22-.12s.17-.13.33-.29l.29-.29.18-.3c.1-.17.18-.31.18-.33s.07-.2.15-.4c.08-.2.2-.58.27-.84.07-.26.16-.64.19-.85l.07-.39-.16-.06ZM68.37,21.81h-2.46l-.39.09-.39.09-.32.15-.32.15-.3.3-.3.3-.16.32c-.09.18-.19.45-.24.61l-.08.29.02.47.02.47.1.2c.06.11.16.27.23.35l.12.14.22.12c.12.06.34.14.48.18l.26.07.39-.02.39-.02.4-.13.4-.13.18-.12c.1-.07.2-.12.22-.12s.17-.13.33-.29l.29-.29.18-.3c.1-.17.18-.31.18-.33s.07-.2.15-.4c.08-.2.2-.58.27-.84.07-.26.16-.64.19-.85l.07-.39-.16-.06ZM85.72,18.48c-.08-.03-.35-.11-.61-.18l-.47-.13h-1.62s-.39.13-.39.13l-.39.13-.22.14c-.12.07-.32.24-.45.36-.13.12-.32.34-.43.49-.11.15-.27.4-.35.56s-.22.44-.3.63c-.08.18-.15.36-.15.39,0,.03-.06.24-.12.45l-.12.39-.08.57-.08.57v.64s-.01.64-.01.64l.07.32.07.32.15.29.15.29.2.17.2.16.24.1c.13.06.35.12.49.15l.25.05.37-.02.37-.02.39-.13.39-.12.27-.18c.15-.1.34-.25.44-.33.09-.08.23-.25.32-.37.08-.12.22-.35.29-.51.07-.16.17-.4.21-.54.04-.14.12-.42.17-.62.05-.2.16-.67.23-1.03.07-.36.19-1.02.27-1.45.08-.43.19-1.05.25-1.38.06-.32.12-.65.13-.72l.03-.13-.14-.05ZM85.72,18.48c-.08-.03-.35-.11-.61-.18l-.47-.13h-1.62s-.39.13-.39.13l-.39.13-.22.14c-.12.07-.32.24-.45.36-.13.12-.32.34-.43.49-.11.15-.27.4-.35.56s-.22.44-.3.63c-.08.18-.15.36-.15.39,0,.03-.06.24-.12.45l-.12.39-.08.57-.08.57v.64s-.01.64-.01.64l.07.32.07.32.15.29.15.29.2.17.2.16.24.1c.13.06.35.12.49.15l.25.05.37-.02.37-.02.39-.13.39-.12.27-.18c.15-.1.34-.25.44-.33.09-.08.23-.25.32-.37.08-.12.22-.35.29-.51.07-.16.17-.4.21-.54.04-.14.12-.42.17-.62.05-.2.16-.67.23-1.03.07-.36.19-1.02.27-1.45.08-.43.19-1.05.25-1.38.06-.32.12-.65.13-.72l.03-.13-.14-.05Z"/>
  </g>
</svg>