<?xml version="1.0" encoding="UTF-8"?>
<svg id="Camada_2" data-name="Camada 2" xmlns="http://www.w3.org/2000/svg" viewBox="0 0 92.83 71.43">
  <defs>
    <style>
      .cls-1, .cls-2 {
        fill: #a2a2a2;
      }

      .cls-2 {
        fill-rule: evenodd;
      }

      .cls-3 {
        fill: #cecece;
      }
    </style>
  </defs>
  <g id="Camada_1-2" data-name="Camada 1">
    <g>
      <path class="cls-2" d="M26.22,63.69v7.56h-1.66v-.92c-.53.68-1.32,1.11-2.41,1.11-2.14,0-3.81-1.66-3.81-3.97s1.67-3.97,3.81-3.97c1.08,0,1.88.43,2.41,1.11v-.92h1.66ZM22.37,65.05c-1.43,0-2.31,1.09-2.31,2.42s.88,2.42,2.31,2.42,2.29-1.04,2.29-2.42-.92-2.42-2.29-2.42ZM82.19,67.47c0-1.33.88-2.42,2.31-2.42s2.29,1.04,2.29,2.42-.92,2.42-2.29,2.42-2.31-1.09-2.31-2.42ZM88.36,60.65v10.59h-1.66v-.92c-.53.68-1.32,1.11-2.41,1.11-2.14,0-3.81-1.66-3.81-3.97s1.67-3.97,3.81-3.97c1.08,0,1.88.43,2.41,1.11v-3.95h1.66ZM46.78,64.97c1.07,0,1.75.66,1.93,1.83h-3.95c.18-1.09.84-1.83,2.02-1.83ZM43.02,67.47c0-2.36,1.56-3.97,3.79-3.97s3.6,1.61,3.62,3.97c0,.22-.02.43-.03.63h-5.66c.24,1.36,1.21,1.85,2.28,1.85.76,0,1.58-.29,2.22-.79l.81,1.22c-.92.77-1.98,1.06-3.12,1.06-2.28,0-3.91-1.57-3.91-3.97ZM66.81,67.47c0-1.33.88-2.42,2.31-2.42s2.29,1.04,2.29,2.42-.92,2.42-2.29,2.42-2.31-1.09-2.31-2.42ZM72.98,63.69v7.56h-1.66v-.92c-.53.68-1.32,1.11-2.41,1.11-2.14,0-3.81-1.66-3.81-3.97s1.67-3.97,3.81-3.97c1.08,0,1.88.43,2.41,1.11v-.92h1.66ZM57.46,67.47c0,2.29,1.61,3.97,4.06,3.97,1.15,0,1.91-.25,2.74-.9l-.8-1.33c-.62.44-1.27.68-1.99.68-1.32-.02-2.29-.96-2.29-2.42s.97-2.4,2.29-2.42c.72,0,1.37.24,1.99.68l.8-1.33c-.83-.65-1.59-.9-2.74-.9-2.46,0-4.06,1.68-4.06,3.97ZM76.81,64.6c.43-.66,1.05-1.11,2.01-1.11.34,0,.81.06,1.18.21l-.51,1.55c-.35-.14-.7-.19-1.04-.19-1.08,0-1.63.69-1.63,1.95v4.24h-1.66v-7.56h1.64v.92ZM34.42,64.29c-.8-.52-1.9-.79-3.11-.79-1.93,0-3.17.92-3.17,2.42,0,1.23.92,1.99,2.63,2.23l.78.11c.91.13,1.34.36,1.34.79,0,.58-.61.92-1.74.92s-1.98-.36-2.53-.79l-.78,1.28c.91.66,2.06.98,3.3.98,2.2,0,3.47-1.03,3.47-2.47,0-1.33-1-2.02-2.66-2.26l-.78-.11c-.72-.09-1.29-.24-1.29-.74,0-.55.54-.88,1.45-.88.97,0,1.91.36,2.37.65l.72-1.33ZM53.78,64.6c.43-.66,1.05-1.11,2.01-1.11.34,0,.81.06,1.18.21l-.51,1.55c-.35-.14-.7-.19-1.04-.19-1.08,0-1.63.69-1.63,1.95v4.24h-1.66v-7.56h1.64v.92ZM41.65,63.69h-2.71v-2.29h-1.67v2.29h-1.54v1.5h1.54v3.45c0,1.75.69,2.8,2.64,2.8.72,0,1.55-.22,2.07-.58l-.48-1.41c-.49.28-1.04.43-1.47.43-.83,0-1.1-.51-1.1-1.27v-3.42h2.71v-1.5ZM16.89,66.5v4.74h-1.67v-4.21c0-1.28-.54-1.99-1.67-1.99s-1.86.7-1.86,2.01v4.19h-1.67v-4.21c0-1.28-.56-1.99-1.66-1.99s-1.87.7-1.87,2.01v4.19h-1.67v-7.56h1.66v.93c.62-.88,1.42-1.12,2.23-1.12,1.16,0,1.99.51,2.52,1.34.7-1.06,1.71-1.36,2.68-1.34,1.85.02,3,1.22,3,3Z"/>
      <path class="cls-3" d="M58.97,50.84h-25.1V6.09h25.1v44.76Z"/>
      <path class="cls-1" d="M35.46,28.47c0-9.08,4.28-17.17,10.96-22.38C41.54,2.27,35.38,0,28.69,0,12.84,0,0,12.74,0,28.47s12.84,28.47,28.69,28.47c6.69,0,12.85-2.27,17.73-6.09-6.67-5.21-10.96-13.3-10.96-22.38"/>
      <path class="cls-1" d="M92.83,28.47c0,15.72-12.84,28.47-28.69,28.47-6.69,0-12.85-2.27-17.73-6.09,6.67-5.21,10.96-13.3,10.96-22.38s-4.28-17.17-10.96-22.38c4.88-3.81,11.04-6.09,17.73-6.09,15.84,0,28.69,12.74,28.69,28.47"/>
    </g>
  </g>
</svg>